<?xml version="1.0" encoding="UTF-8"?>
<!--Generator: Apple Native CoreSVG 341-->
<!DOCTYPE svg
PUBLIC "-//W3C//DTD SVG 1.1//EN"
       "http://www.w3.org/Graphics/SVG/1.1/DTD/svg11.dtd">
<svg version="1.1" xmlns="http://www.w3.org/2000/svg" xmlns:xlink="http://www.w3.org/1999/xlink" viewBox="0 0 3300 2200">
 <!--glyph: "10037B", point size: 100.0, font version: "21.0d6e2", template writer version: "138.0.0"-->
 <style>.SFSymbolsPreviewWireframe {fill:none;opacity:1.0;stroke:black;stroke-width:0.5}
</style>
 <g id="Notes">
  <rect height="2200" id="artboard" style="fill:white;opacity:1" width="3300" x="0" y="0"/>
  <line style="fill:none;stroke:black;opacity:1;stroke-width:0.5;" x1="263" x2="3036" y1="292" y2="292"/>
  <text style="stroke:none;fill:black;font-family:sans-serif;font-size:13;font-weight:bold;" transform="matrix(1 0 0 1 263 322)">Weight/Scale Variations</text>
  <text style="stroke:none;fill:black;font-family:sans-serif;font-size:13;text-anchor:middle;" transform="matrix(1 0 0 1 559.711 322)">Ultralight</text>
  <text style="stroke:none;fill:black;font-family:sans-serif;font-size:13;text-anchor:middle;" transform="matrix(1 0 0 1 856.422 322)">Thin</text>
  <text style="stroke:none;fill:black;font-family:sans-serif;font-size:13;text-anchor:middle;" transform="matrix(1 0 0 1 1153.13 322)">Light</text>
  <text style="stroke:none;fill:black;font-family:sans-serif;font-size:13;text-anchor:middle;" transform="matrix(1 0 0 1 1449.84 322)">Regular</text>
  <text style="stroke:none;fill:black;font-family:sans-serif;font-size:13;text-anchor:middle;" transform="matrix(1 0 0 1 1746.56 322)">Medium</text>
  <text style="stroke:none;fill:black;font-family:sans-serif;font-size:13;text-anchor:middle;" transform="matrix(1 0 0 1 2043.27 322)">Semibold</text>
  <text style="stroke:none;fill:black;font-family:sans-serif;font-size:13;text-anchor:middle;" transform="matrix(1 0 0 1 2339.98 322)">Bold</text>
  <text style="stroke:none;fill:black;font-family:sans-serif;font-size:13;text-anchor:middle;" transform="matrix(1 0 0 1 2636.69 322)">Heavy</text>
  <text style="stroke:none;fill:black;font-family:sans-serif;font-size:13;text-anchor:middle;" transform="matrix(1 0 0 1 2933.4 322)">Black</text>
  <line style="fill:none;stroke:black;opacity:1;stroke-width:0.5;" x1="263" x2="3036" y1="1903" y2="1903"/>
  <g transform="matrix(0.2 0 0 0.2 263 1933)">
   <path d="m46.2402 4.15039c21.7773 0 39.4531-17.627 39.4531-39.4043s-17.6758-39.4043-39.4531-39.4043c-21.7285 0-39.4043 17.627-39.4043 39.4043s17.6758 39.4043 39.4043 39.4043Zm0-7.42188c-17.6758 0-31.9336-14.3066-31.9336-31.9824s14.2578-31.9824 31.9336-31.9824 31.9824 14.3066 31.9824 31.9824-14.3066 31.9824-31.9824 31.9824Zm3.61328-17.7734v-28.4668c0-2.24609-1.46484-3.75977-3.71094-3.75977-2.14844 0-3.61328 1.51367-3.61328 3.75977v28.4668c0 2.19727 1.46484 3.71094 3.61328 3.71094 2.24609 0 3.71094-1.51367 3.71094-3.71094Zm-17.8223-10.5957h28.418c2.19727 0 3.71094-1.46484 3.71094-3.61328 0-2.19727-1.51367-3.71094-3.71094-3.71094h-28.418c-2.24609 0-3.75977 1.51367-3.75977 3.71094 0 2.14844 1.51367 3.61328 3.75977 3.61328Z"/>
  </g>
  <g transform="matrix(0.2 0 0 0.2 281.506 1933)">
   <path d="m58.5449 14.5508c27.4902 0 49.8047-22.3145 49.8047-49.8047s-22.3145-49.8047-49.8047-49.8047-49.8047 22.3145-49.8047 49.8047 22.3145 49.8047 49.8047 49.8047Zm0-8.30078c-22.9492 0-41.5039-18.5547-41.5039-41.5039s18.5547-41.5039 41.5039-41.5039 41.5039 18.5547 41.5039 41.5039-18.5547 41.5039-41.5039 41.5039Zm4.05273-23.0957v-36.9141c0-2.49023-1.70898-4.19922-4.15039-4.19922-2.39258 0-4.05273 1.70898-4.05273 4.19922v36.9141c0 2.44141 1.66016 4.15039 4.05273 4.15039 2.44141 0 4.15039-1.66016 4.15039-4.15039Zm-22.5586-14.4043h36.9629c2.44141 0 4.15039-1.61133 4.15039-4.00391 0-2.44141-1.70898-4.15039-4.15039-4.15039h-36.9629c-2.49023 0-4.15039 1.70898-4.15039 4.15039 0 2.39258 1.66016 4.00391 4.15039 4.00391Z"/>
  </g>
  <g transform="matrix(0.2 0 0 0.2 304.924 1933)">
   <path d="m74.8535 28.3203c35.1074 0 63.623-28.4668 63.623-63.5742s-28.5156-63.623-63.623-63.623-63.5742 28.5156-63.5742 63.623 28.4668 63.5742 63.5742 63.5742Zm0-9.08203c-30.127 0-54.4922-24.3652-54.4922-54.4922s24.3652-54.4922 54.4922-54.4922 54.4922 24.3652 54.4922 54.4922-24.3652 54.4922-54.4922 54.4922Zm4.44336-30.3223v-48.4863c0-2.73438-1.85547-4.63867-4.54102-4.63867-2.58789 0-4.44336 1.9043-4.44336 4.63867v48.4863c0 2.68555 1.85547 4.58984 4.44336 4.58984 2.68555 0 4.54102-1.85547 4.54102-4.58984Zm-28.7109-19.7754h48.4863c2.68555 0 4.58984-1.80664 4.58984-4.39453 0-2.73438-1.85547-4.58984-4.58984-4.58984h-48.4863c-2.73438 0-4.58984 1.85547-4.58984 4.58984 0 2.58789 1.85547 4.39453 4.58984 4.39453Z"/>
  </g>
  <text style="stroke:none;fill:black;font-family:sans-serif;font-size:13;font-weight:bold;" transform="matrix(1 0 0 1 263 1953)">Design Variations</text>
  <text style="stroke:none;fill:black;font-family:sans-serif;font-size:13;" transform="matrix(1 0 0 1 263 1971)">Symbols are supported in up to nine weights and three scales.</text>
  <text style="stroke:none;fill:black;font-family:sans-serif;font-size:13;" transform="matrix(1 0 0 1 263 1989)">For optimal layout with text and other symbols, vertically align</text>
  <text style="stroke:none;fill:black;font-family:sans-serif;font-size:13;" transform="matrix(1 0 0 1 263 2007)">symbols with the adjacent text.</text>
  <line style="fill:none;stroke:#00AEEF;stroke-width:0.5;opacity:1.0;" x1="776" x2="776" y1="1919" y2="1933"/>
  <g transform="matrix(0.2 0 0 0.2 776 1933)">
   <path d="m16.5527 0.78125c2.58789 0 3.85742-0.976562 4.78516-3.71094l20.5566-57.5195h0.244141l20.6055 57.5195c0.927734 2.73438 2.19727 3.71094 4.73633 3.71094 2.58789 0 4.24805-1.5625 4.24805-4.00391 0-0.830078-0.146484-1.61133-0.537109-2.63672l-22.9004-60.9863c-1.12305-2.97852-3.125-4.49219-6.25-4.49219-3.02734 0-5.07812 1.46484-6.15234 4.44336l-22.9004 61.084c-0.390625 1.02539-0.537109 1.80664-0.537109 2.63672 0 2.44141 1.5625 3.95508 4.10156 3.95508Zm10.2051-20.9473h30.6641c2.00195 0 3.66211-1.66016 3.66211-3.66211 0-2.05078-1.66016-3.66211-3.66211-3.66211h-30.6641c-2.00195 0-3.66211 1.61133-3.66211 3.66211 0 2.00195 1.66016 3.66211 3.66211 3.66211Z"/>
  </g>
  <line style="fill:none;stroke:#00AEEF;stroke-width:0.5;opacity:1.0;" x1="792.836" x2="792.836" y1="1919" y2="1933"/>
  <text style="stroke:none;fill:black;font-family:sans-serif;font-size:13;font-weight:bold;" transform="matrix(1 0 0 1 776 1953)">Margins</text>
  <text style="stroke:none;fill:black;font-family:sans-serif;font-size:13;" transform="matrix(1 0 0 1 776 1971)">Leading and trailing margins on the left and right side of each symbol</text>
  <text style="stroke:none;fill:black;font-family:sans-serif;font-size:13;" transform="matrix(1 0 0 1 776 1989)">can be adjusted by modifying the x-location of the margin guidelines.</text>
  <text style="stroke:none;fill:black;font-family:sans-serif;font-size:13;" transform="matrix(1 0 0 1 776 2007)">Modifications are automatically applied proportionally to all</text>
  <text style="stroke:none;fill:black;font-family:sans-serif;font-size:13;" transform="matrix(1 0 0 1 776 2025)">scales and weights.</text>
  <g transform="matrix(0.2 0 0 0.2 1289 1933)">
   <path d="m14.209 13.1348 7.86133 7.86133c4.29688 4.39453 9.32617 4.10156 13.8672-1.02539l60.6934-68.2129-4.88281-4.88281-60.2539 67.6758c-1.80664 1.95312-3.4668 2.44141-5.81055 0.0976562l-5.17578-5.12695c-2.29492-2.29492-1.80664-3.95508 0.195312-5.81055l67.4805-62.1582-4.88281-4.83398-68.0664 62.5977c-4.98047 4.58984-5.32227 9.47266-1.02539 13.8184Zm44.873-97.4609c-2.05078 2.00195-2.24609 4.88281-1.07422 6.78711 1.12305 1.80664 3.4668 3.02734 6.5918 2.24609 5.85938-1.66016 12.5977-2.39258 18.8965 0.927734l-2.68555 7.12891c-1.61133 4.00391-0.732422 6.88477 1.70898 9.42383l10.2539 10.3027c2.34375 2.39258 4.54102 2.44141 7.08008 1.95312l4.44336-0.732422 2.58789 2.53906-0.195312 2.24609c-0.0976562 2.29492 0.537109 4.29688 2.7832 6.49414l3.36914 3.32031c2.29492 2.29492 5.51758 2.49023 7.8125 0.195312l12.9883-13.0371c2.29492-2.34375 2.14844-5.37109-0.195312-7.66602l-3.41797-3.41797c-2.19727-2.19727-4.05273-3.02734-6.34766-2.88086l-2.34375 0.244141-2.44141-2.44141 1.02539-4.6875c0.634766-2.73438-0.244141-4.98047-2.88086-7.61719l-11.2793-11.1816c-12.9395-12.8418-35.5957-11.0352-46.6797-0.146484Zm7.08008 2.05078c8.78906-6.39648 25.9766-5.66406 33.6914 1.95312l12.3047 12.207c1.02539 1.02539 1.2207 1.80664 0.927734 3.32031l-1.46484 6.64062 6.73828 6.68945 4.39453-0.244141c1.12305-0.0488281 1.51367 0.0488281 2.34375 0.878906l2.53906 2.49023-10.8398 10.8398-2.49023-2.49023c-0.830078-0.878906-0.976562-1.2207-0.927734-2.39258l0.292969-4.3457-6.68945-6.73828-6.83594 1.17188c-1.41602 0.292969-2.05078 0.195312-3.17383-0.878906l-8.93555-8.88672c-1.07422-1.02539-1.17188-1.70898-0.488281-3.36914l4.58984-11.4746c-6.10352-6.34766-17.041-7.51953-25.5859-4.58984-0.683594 0.244141-0.927734-0.390625-0.390625-0.78125Z"/>
  </g>
  <text style="stroke:none;fill:black;font-family:sans-serif;font-size:13;font-weight:bold;" transform="matrix(1 0 0 1 1289 1953)">Exporting</text>
  <text style="stroke:none;fill:black;font-family:sans-serif;font-size:13;" transform="matrix(1 0 0 1 1289 1971)">Symbols should be outlined when exporting to ensure the</text>
  <text style="stroke:none;fill:black;font-family:sans-serif;font-size:13;" transform="matrix(1 0 0 1 1289 1989)">design is preserved when submitting to Xcode.</text>
  <text id="template-version" style="stroke:none;fill:black;font-family:sans-serif;font-size:13;text-anchor:end;" transform="matrix(1 0 0 1 3036 1933)">Template v.7.0</text>
  <text style="stroke:none;fill:black;font-family:sans-serif;font-size:13;text-anchor:end;" transform="matrix(1 0 0 1 3036 1951)">Requires Xcode 17 or greater</text>
  <text id="descriptive-name" style="stroke:none;fill:black;font-family:sans-serif;font-size:13;text-anchor:end;" transform="matrix(1 0 0 1 3036 1969)">Generated from dial.low.fill</text>
  <text style="stroke:none;fill:black;font-family:sans-serif;font-size:13;text-anchor:end;" transform="matrix(1 0 0 1 3036 1987)">Typeset at 100.0 points</text>
  <text style="stroke:none;fill:black;font-family:sans-serif;font-size:13;" transform="matrix(1 0 0 1 263 726)">Small</text>
  <text style="stroke:none;fill:black;font-family:sans-serif;font-size:13;" transform="matrix(1 0 0 1 263 1156)">Medium</text>
  <text style="stroke:none;fill:black;font-family:sans-serif;font-size:13;" transform="matrix(1 0 0 1 263 1586)">Large</text>
 </g>
 <g id="Guides">
  <g id="H-reference" style="fill:#27AAE1;stroke:none;" transform="matrix(1 0 0 1 339 696)">
   <path d="M0.993654 0L3.63775 0L29.3281-67.1323L30.0303-67.1323L30.0303-70.459L28.1226-70.459ZM11.6885-24.4799L46.9815-24.4799L46.2315-26.7285L12.4385-26.7285ZM55.1196 0L57.7637 0L30.6382-70.459L29.4326-70.459L29.4326-67.1323Z"/>
  </g>
  <line id="Baseline-S" style="fill:none;stroke:#27AAE1;opacity:1;stroke-width:0.5;" x1="263" x2="3036" y1="696" y2="696"/>
  <line id="Capline-S" style="fill:none;stroke:#27AAE1;opacity:1;stroke-width:0.5;" x1="263" x2="3036" y1="625.541" y2="625.541"/>
  <g id="H-reference" style="fill:#27AAE1;stroke:none;" transform="matrix(1 0 0 1 339 1126)">
   <path d="M0.993654 0L3.63775 0L29.3281-67.1323L30.0303-67.1323L30.0303-70.459L28.1226-70.459ZM11.6885-24.4799L46.9815-24.4799L46.2315-26.7285L12.4385-26.7285ZM55.1196 0L57.7637 0L30.6382-70.459L29.4326-70.459L29.4326-67.1323Z"/>
  </g>
  <line id="Baseline-M" style="fill:none;stroke:#27AAE1;opacity:1;stroke-width:0.5;" x1="263" x2="3036" y1="1126" y2="1126"/>
  <line id="Capline-M" style="fill:none;stroke:#27AAE1;opacity:1;stroke-width:0.5;" x1="263" x2="3036" y1="1055.54" y2="1055.54"/>
  <g id="H-reference" style="fill:#27AAE1;stroke:none;" transform="matrix(1 0 0 1 339 1556)">
   <path d="M0.993654 0L3.63775 0L29.3281-67.1323L30.0303-67.1323L30.0303-70.459L28.1226-70.459ZM11.6885-24.4799L46.9815-24.4799L46.2315-26.7285L12.4385-26.7285ZM55.1196 0L57.7637 0L30.6382-70.459L29.4326-70.459L29.4326-67.1323Z"/>
  </g>
  <line id="Baseline-L" style="fill:none;stroke:#27AAE1;opacity:1;stroke-width:0.5;" x1="263" x2="3036" y1="1556" y2="1556"/>
  <line id="Capline-L" style="fill:none;stroke:#27AAE1;opacity:1;stroke-width:0.5;" x1="263" x2="3036" y1="1485.54" y2="1485.54"/>
  <line id="right-margin-Black-S" style="fill:none;stroke:#00AEEF;stroke-width:0.5;opacity:1.0;" x1="2986.57" x2="2986.57" y1="600.785" y2="720.121"/>
  <line id="left-margin-Black-S" style="fill:none;stroke:#00AEEF;stroke-width:0.5;opacity:1.0;" x1="2880.23" x2="2880.23" y1="600.785" y2="720.121"/>
  <line id="right-margin-Regular-S" style="fill:none;stroke:#00AEEF;stroke-width:0.5;opacity:1.0;" x1="1503.02" x2="1503.02" y1="600.785" y2="720.121"/>
  <line id="left-margin-Regular-S" style="fill:none;stroke:#00AEEF;stroke-width:0.5;opacity:1.0;" x1="1396.67" x2="1396.67" y1="600.785" y2="720.121"/>
  <line id="right-margin-Ultralight-S" style="fill:none;stroke:#00AEEF;stroke-width:0.5;opacity:1.0;" x1="607.231" x2="607.231" y1="600.785" y2="720.121"/>
  <line id="left-margin-Ultralight-S" style="fill:none;stroke:#00AEEF;stroke-width:0.5;opacity:1.0;" x1="512.191" x2="512.191" y1="600.785" y2="720.121"/>
 </g>
 <g id="Symbols">
  <g id="Black-S" transform="matrix(1 0 0 1 2880.23 696)">
   <path class="SFSymbolsPreviewWireframe" d="M53.1738-1.07422C68.8477-1.07422 81.543-13.7695 81.543-29.4434C81.543-45.1172 68.8477-57.8125 53.1738-57.8125C37.5-57.8125 24.8047-45.1172 24.8047-29.4434C24.8047-22.9004 27.0508-16.8457 30.8105-11.9629L49.9512-32.9102C51.8066-34.9609 55.127-34.7656 56.9336-32.9102C58.9355-30.8105 59.0332-27.7344 56.9336-25.8301L36.1816-6.73828C40.9668-3.125 46.875-1.07422 53.1738-1.07422ZM24.8047 5.0293C28.0273 5.0293 30.6641 2.39258 30.6641-0.830078C30.6641-4.05273 28.0273-6.68945 24.8047-6.68945C21.582-6.68945 18.9453-4.05273 18.9453-0.830078C18.9453 2.39258 21.582 5.0293 24.8047 5.0293ZM12.6953-23.584C15.918-23.584 18.5547-26.2207 18.5547-29.4434C18.5547-32.666 15.918-35.3027 12.6953-35.3027C9.47266-35.3027 6.83594-32.666 6.83594-29.4434C6.83594-26.2207 9.47266-23.584 12.6953-23.584ZM24.8047-52.1973C28.0273-52.1973 30.6641-54.834 30.6641-58.0566C30.6641-61.2793 28.0273-63.916 24.8047-63.916C21.582-63.916 18.9453-61.2793 18.9453-58.0566C18.9453-54.834 21.582-52.1973 24.8047-52.1973ZM53.1738-64.0137C56.3965-64.0137 59.0332-66.6504 59.0332-69.873C59.0332-73.0957 56.3965-75.7324 53.1738-75.7324C49.9512-75.7324 47.3145-73.0957 47.3145-69.873C47.3145-66.6504 49.9512-64.0137 53.1738-64.0137ZM81.543-52.1973C84.7656-52.1973 87.4023-54.834 87.4023-58.0566C87.4023-61.2793 84.7656-63.916 81.543-63.916C78.3203-63.916 75.6836-61.2793 75.6836-58.0566C75.6836-54.834 78.3203-52.1973 81.543-52.1973ZM93.6523-23.584C96.875-23.584 99.5117-26.2207 99.5117-29.4434C99.5117-32.666 96.875-35.3027 93.6523-35.3027C90.4297-35.3027 87.793-32.666 87.793-29.4434C87.793-26.2207 90.4297-23.584 93.6523-23.584ZM81.543 5.0293C84.7656 5.0293 87.4023 2.39258 87.4023-0.830078C87.4023-4.05273 84.7656-6.68945 81.543-6.68945C78.3203-6.68945 75.6836-4.05273 75.6836-0.830078C75.6836 2.39258 78.3203 5.0293 81.543 5.0293Z"/>
  </g>
  <g id="Regular-S" transform="matrix(1 0 0 1 1396.67 696)">
   <path class="SFSymbolsPreviewWireframe" d="M53.1738-0.683594C68.8477-0.683594 81.543-13.3789 81.543-29.0527C81.543-44.7266 68.8477-57.373 53.1738-57.373C37.5-57.373 24.8535-44.7266 24.8535-29.0527C24.8535-22.4609 27.0508-16.4551 30.7617-11.6211L50.9277-31.8359C52.1484-33.0566 54.3457-33.0566 55.4688-31.8359C56.7871-30.4199 56.7871-28.5156 55.4688-27.1973L35.3027-7.03125C40.1367-3.02734 46.3867-0.683594 53.1738-0.683594ZM23.3398 4.93164C25.7324 4.93164 27.6367 3.02734 27.6367 0.634766C27.6367-1.75781 25.7324-3.66211 23.3398-3.66211C20.9473-3.66211 19.043-1.75781 19.043 0.634766C19.043 3.02734 20.9473 4.93164 23.3398 4.93164ZM11.1328-24.7559C13.5254-24.7559 15.4297-26.6602 15.4297-29.0527C15.4297-31.4453 13.5254-33.3496 11.1328-33.3496C8.74023-33.3496 6.83594-31.4453 6.83594-29.0527C6.83594-26.6602 8.74023-24.7559 11.1328-24.7559ZM23.3398-54.3457C25.7324-54.3457 27.6367-56.25 27.6367-58.5938C27.6367-60.9863 25.7324-62.8906 23.3398-62.8906C20.9473-62.8906 19.043-60.9863 19.043-58.5938C19.043-56.25 20.9473-54.3457 23.3398-54.3457ZM53.1738-66.7969C55.5664-66.7969 57.4707-68.7012 57.4707-71.0938C57.4707-73.4863 55.5664-75.3906 53.1738-75.3906C50.7812-75.3906 48.877-73.4863 48.877-71.0938C48.877-68.7012 50.7812-66.7969 53.1738-66.7969ZM83.0566-54.3457C85.4492-54.3457 87.3535-56.25 87.3535-58.5938C87.3535-60.9863 85.4492-62.8906 83.0566-62.8906C80.6641-62.8906 78.7598-60.9863 78.7598-58.5938C78.7598-56.25 80.6641-54.3457 83.0566-54.3457ZM95.2637-24.7559C97.6074-24.7559 99.5117-26.6602 99.5117-29.0527C99.5117-31.4453 97.6074-33.3496 95.2637-33.3496C92.8711-33.3496 90.9668-31.4453 90.9668-29.0527C90.9668-26.6602 92.8711-24.7559 95.2637-24.7559ZM83.0566 4.93164C85.4492 4.93164 87.3535 3.02734 87.3535 0.634766C87.3535-1.75781 85.4492-3.66211 83.0566-3.66211C80.6641-3.66211 78.7598-1.75781 78.7598 0.634766C78.7598 3.02734 80.6641 4.93164 83.0566 4.93164Z"/>
  </g>
  <g id="Ultralight-S" transform="matrix(1 0 0 1 512.191 696)">
   <path class="SFSymbolsPreviewWireframe" d="M47.4976-4.13474C61.6275-4.13474 73.0059-15.5132 73.0059-29.5977C73.0059-43.7275 61.6275-55.1026 47.4976-55.1026C33.4131-55.1026 22.0381-43.7275 22.0381-29.5977C22.0381-23.1875 24.3716-17.3179 28.355-12.8017L47.1133-31.6543C47.562-32.103 48.2608-32.0576 48.7027-31.6543C49.1129-31.2373 49.1129-30.5137 48.7027-30.0581L29.899-11.1635C34.4605-6.79636 40.7105-4.13474 47.4976-4.13474ZM20.5698-0.199667C21.9634-0.199667 23.0957-1.332 23.0957-2.77097C23.0957-4.16453 21.9634-5.29686 20.5698-5.29686C19.1309-5.29686 18.044-4.16453 18.044-2.77097C18.044-1.332 19.1309-0.199667 20.5698-0.199667ZM9.36183-27.1172C10.8008-27.1172 11.8877-28.2495 11.8877-29.6431C11.8877-31.082 10.8008-32.169 9.36183-32.169C7.96827-32.169 6.83594-31.082 6.83594-29.6431C6.83594-28.2495 7.96827-27.1172 9.36183-27.1172ZM20.5698-53.9824C21.9634-53.9824 23.0957-55.0693 23.0957-56.5049C23.0957-57.9439 21.9634-59.0308 20.5698-59.0308C19.1309-59.0308 18.044-57.9439 18.044-56.5049C18.044-55.0693 19.1309-53.9824 20.5698-53.9824ZM47.4976-65.2075C48.9366-65.2075 50.0235-66.3399 50.0235-67.7334C50.0235-69.1724 48.9366-70.3047 47.4976-70.3047C46.104-70.3047 44.9717-69.1724 44.9717-67.7334C44.9717-66.3399 46.104-65.2075 47.4976-65.2075ZM74.4742-53.9824C75.8678-53.9824 77.0001-55.0693 77.0001-56.5049C77.0001-57.9439 75.8678-59.0308 74.4742-59.0308C73.0352-59.0308 71.9483-57.9439 71.9483-56.5049C71.9483-55.0693 73.0352-53.9824 74.4742-53.9824ZM85.6368-27.1172C87.0723-27.1172 88.2047-28.2495 88.2047-29.6431C88.2047-31.082 87.0723-32.169 85.6368-32.169C84.2432-32.169 83.1109-31.082 83.1109-29.6431C83.1109-28.2495 84.2432-27.1172 85.6368-27.1172ZM74.4742-0.199667C75.8678-0.199667 77.0001-1.332 77.0001-2.77097C77.0001-4.16453 75.8678-5.29686 74.4742-5.29686C73.0352-5.29686 71.9483-4.16453 71.9483-2.77097C71.9483-1.332 73.0352-0.199667 74.4742-0.199667Z"/>
  </g>
 </g>
</svg>
