<?xml version="1.0" encoding="UTF-8"?>
<!--Generator: Apple Native CoreSVG 341-->
<!DOCTYPE svg
PUBLIC "-//W3C//DTD SVG 1.1//EN"
       "http://www.w3.org/Graphics/SVG/1.1/DTD/svg11.dtd">
<svg version="1.1" xmlns="http://www.w3.org/2000/svg" xmlns:xlink="http://www.w3.org/1999/xlink" viewBox="0 0 3300 2200">
 <!--glyph: "", point size: 100.0, font version: "21.1d1e1", template writer version: "138.0.0"-->
 <style>.SFSymbolsPreviewWireframe {fill:none;opacity:1.0;stroke:black;stroke-width:0.5}
</style>
 <g id="Notes">
  <rect height="2200" id="artboard" style="fill:white;opacity:1" width="3300" x="0" y="0"/>
  <line style="fill:none;stroke:black;opacity:1;stroke-width:0.5;" x1="263" x2="3036" y1="292" y2="292"/>
  <text style="stroke:none;fill:black;font-family:sans-serif;font-size:13;font-weight:bold;" transform="matrix(1 0 0 1 263 322)">Weight/Scale Variations</text>
  <text style="stroke:none;fill:black;font-family:sans-serif;font-size:13;text-anchor:middle;" transform="matrix(1 0 0 1 559.711 322)">Ultralight</text>
  <text style="stroke:none;fill:black;font-family:sans-serif;font-size:13;text-anchor:middle;" transform="matrix(1 0 0 1 856.422 322)">Thin</text>
  <text style="stroke:none;fill:black;font-family:sans-serif;font-size:13;text-anchor:middle;" transform="matrix(1 0 0 1 1153.13 322)">Light</text>
  <text style="stroke:none;fill:black;font-family:sans-serif;font-size:13;text-anchor:middle;" transform="matrix(1 0 0 1 1449.84 322)">Regular</text>
  <text style="stroke:none;fill:black;font-family:sans-serif;font-size:13;text-anchor:middle;" transform="matrix(1 0 0 1 1746.56 322)">Medium</text>
  <text style="stroke:none;fill:black;font-family:sans-serif;font-size:13;text-anchor:middle;" transform="matrix(1 0 0 1 2043.27 322)">Semibold</text>
  <text style="stroke:none;fill:black;font-family:sans-serif;font-size:13;text-anchor:middle;" transform="matrix(1 0 0 1 2339.98 322)">Bold</text>
  <text style="stroke:none;fill:black;font-family:sans-serif;font-size:13;text-anchor:middle;" transform="matrix(1 0 0 1 2636.69 322)">Heavy</text>
  <text style="stroke:none;fill:black;font-family:sans-serif;font-size:13;text-anchor:middle;" transform="matrix(1 0 0 1 2933.4 322)">Black</text>
  <line style="fill:none;stroke:black;opacity:1;stroke-width:0.5;" x1="263" x2="3036" y1="1903" y2="1903"/>
  <g transform="matrix(0.2 0 0 0.2 263 1933)">
   <path d="m46.2402 4.15039c21.7773 0 39.4531-17.627 39.4531-39.4043s-17.6758-39.4043-39.4531-39.4043c-21.7285 0-39.4043 17.627-39.4043 39.4043s17.6758 39.4043 39.4043 39.4043Zm0-7.42188c-17.6758 0-31.9336-14.3066-31.9336-31.9824s14.2578-31.9824 31.9336-31.9824 31.9824 14.3066 31.9824 31.9824-14.3066 31.9824-31.9824 31.9824Zm3.61328-17.7734v-28.4668c0-2.24609-1.46484-3.75977-3.71094-3.75977-2.14844 0-3.61328 1.51367-3.61328 3.75977v28.4668c0 2.19727 1.46484 3.71094 3.61328 3.71094 2.24609 0 3.71094-1.51367 3.71094-3.71094Zm-17.8223-10.5957h28.418c2.19727 0 3.71094-1.46484 3.71094-3.61328 0-2.19727-1.51367-3.71094-3.71094-3.71094h-28.418c-2.24609 0-3.75977 1.51367-3.75977 3.71094 0 2.14844 1.51367 3.61328 3.75977 3.61328Z"/>
  </g>
  <g transform="matrix(0.2 0 0 0.2 281.506 1933)">
   <path d="m58.5449 14.5508c27.4902 0 49.8047-22.3145 49.8047-49.8047s-22.3145-49.8047-49.8047-49.8047-49.8047 22.3145-49.8047 49.8047 22.3145 49.8047 49.8047 49.8047Zm0-8.30078c-22.9492 0-41.5039-18.5547-41.5039-41.5039s18.5547-41.5039 41.5039-41.5039 41.5039 18.5547 41.5039 41.5039-18.5547 41.5039-41.5039 41.5039Zm4.05273-23.0957v-36.9141c0-2.49023-1.70898-4.19922-4.15039-4.19922-2.39258 0-4.05273 1.70898-4.05273 4.19922v36.9141c0 2.44141 1.66016 4.15039 4.05273 4.15039 2.44141 0 4.15039-1.66016 4.15039-4.15039Zm-22.5586-14.4043h36.9629c2.44141 0 4.15039-1.61133 4.15039-4.00391 0-2.44141-1.70898-4.15039-4.15039-4.15039h-36.9629c-2.49023 0-4.15039 1.70898-4.15039 4.15039 0 2.39258 1.66016 4.00391 4.15039 4.00391Z"/>
  </g>
  <g transform="matrix(0.2 0 0 0.2 304.924 1933)">
   <path d="m74.8535 28.3203c35.1074 0 63.623-28.4668 63.623-63.5742s-28.5156-63.623-63.623-63.623-63.5742 28.5156-63.5742 63.623 28.4668 63.5742 63.5742 63.5742Zm0-9.08203c-30.127 0-54.4922-24.3652-54.4922-54.4922s24.3652-54.4922 54.4922-54.4922 54.4922 24.3652 54.4922 54.4922-24.3652 54.4922-54.4922 54.4922Zm4.44336-30.3223v-48.4863c0-2.73438-1.85547-4.63867-4.54102-4.63867-2.58789 0-4.44336 1.9043-4.44336 4.63867v48.4863c0 2.68555 1.85547 4.58984 4.44336 4.58984 2.68555 0 4.54102-1.85547 4.54102-4.58984Zm-28.7109-19.7754h48.4863c2.68555 0 4.58984-1.80664 4.58984-4.39453 0-2.73438-1.85547-4.58984-4.58984-4.58984h-48.4863c-2.73438 0-4.58984 1.85547-4.58984 4.58984 0 2.58789 1.85547 4.39453 4.58984 4.39453Z"/>
  </g>
  <text style="stroke:none;fill:black;font-family:sans-serif;font-size:13;font-weight:bold;" transform="matrix(1 0 0 1 263 1953)">Design Variations</text>
  <text style="stroke:none;fill:black;font-family:sans-serif;font-size:13;" transform="matrix(1 0 0 1 263 1971)">Symbols are supported in up to nine weights and three scales.</text>
  <text style="stroke:none;fill:black;font-family:sans-serif;font-size:13;" transform="matrix(1 0 0 1 263 1989)">For optimal layout with text and other symbols, vertically align</text>
  <text style="stroke:none;fill:black;font-family:sans-serif;font-size:13;" transform="matrix(1 0 0 1 263 2007)">symbols with the adjacent text.</text>
  <line style="fill:none;stroke:#00AEEF;stroke-width:0.5;opacity:1.0;" x1="776" x2="776" y1="1919" y2="1933"/>
  <g transform="matrix(0.2 0 0 0.2 776 1933)">
   <path d="m16.5527 0.78125c2.58789 0 3.85742-0.976562 4.78516-3.71094l20.5566-57.5195h0.244141l20.6055 57.5195c0.927734 2.73438 2.19727 3.71094 4.73633 3.71094 2.58789 0 4.24805-1.5625 4.24805-4.00391 0-0.830078-0.146484-1.61133-0.537109-2.63672l-22.9004-60.9863c-1.12305-2.97852-3.125-4.49219-6.25-4.49219-3.02734 0-5.07812 1.46484-6.15234 4.44336l-22.9004 61.084c-0.390625 1.02539-0.537109 1.80664-0.537109 2.63672 0 2.44141 1.5625 3.95508 4.10156 3.95508Zm10.2051-20.9473h30.6641c2.00195 0 3.66211-1.66016 3.66211-3.66211 0-2.05078-1.66016-3.66211-3.66211-3.66211h-30.6641c-2.00195 0-3.66211 1.61133-3.66211 3.66211 0 2.00195 1.66016 3.66211 3.66211 3.66211Z"/>
  </g>
  <line style="fill:none;stroke:#00AEEF;stroke-width:0.5;opacity:1.0;" x1="792.836" x2="792.836" y1="1919" y2="1933"/>
  <text style="stroke:none;fill:black;font-family:sans-serif;font-size:13;font-weight:bold;" transform="matrix(1 0 0 1 776 1953)">Margins</text>
  <text style="stroke:none;fill:black;font-family:sans-serif;font-size:13;" transform="matrix(1 0 0 1 776 1971)">Leading and trailing margins on the left and right side of each symbol</text>
  <text style="stroke:none;fill:black;font-family:sans-serif;font-size:13;" transform="matrix(1 0 0 1 776 1989)">can be adjusted by modifying the x-location of the margin guidelines.</text>
  <text style="stroke:none;fill:black;font-family:sans-serif;font-size:13;" transform="matrix(1 0 0 1 776 2007)">Modifications are automatically applied proportionally to all</text>
  <text style="stroke:none;fill:black;font-family:sans-serif;font-size:13;" transform="matrix(1 0 0 1 776 2025)">scales and weights.</text>
  <g transform="matrix(0.2 0 0 0.2 1289 1933)">
   <path d="m14.209 13.1348 7.86133 7.86133c4.29688 4.39453 9.32617 4.10156 13.8672-1.02539l60.6934-68.2129-4.88281-4.88281-60.2539 67.6758c-1.80664 1.95312-3.4668 2.44141-5.81055 0.0976562l-5.17578-5.12695c-2.29492-2.29492-1.80664-3.95508 0.195312-5.81055l67.4805-62.1582-4.88281-4.83398-68.0664 62.5977c-4.98047 4.58984-5.32227 9.47266-1.02539 13.8184Zm44.873-97.4609c-2.05078 2.00195-2.24609 4.88281-1.07422 6.78711 1.12305 1.80664 3.4668 3.02734 6.5918 2.24609 5.85938-1.66016 12.5977-2.39258 18.8965 0.927734l-2.68555 7.12891c-1.61133 4.00391-0.732422 6.88477 1.70898 9.42383l10.2539 10.3027c2.34375 2.39258 4.54102 2.44141 7.08008 1.95312l4.44336-0.732422 2.58789 2.53906-0.195312 2.24609c-0.0976562 2.29492 0.537109 4.29688 2.7832 6.49414l3.36914 3.32031c2.29492 2.29492 5.51758 2.49023 7.8125 0.195312l12.9883-13.0371c2.29492-2.34375 2.14844-5.37109-0.195312-7.66602l-3.41797-3.41797c-2.19727-2.19727-4.05273-3.02734-6.34766-2.88086l-2.34375 0.244141-2.44141-2.44141 1.02539-4.6875c0.634766-2.73438-0.244141-4.98047-2.88086-7.61719l-11.2793-11.1816c-12.9395-12.8418-35.5957-11.0352-46.6797-0.146484Zm7.08008 2.05078c8.78906-6.39648 25.9766-5.66406 33.6914 1.95312l12.3047 12.207c1.02539 1.02539 1.2207 1.80664 0.927734 3.32031l-1.46484 6.64062 6.73828 6.68945 4.39453-0.244141c1.12305-0.0488281 1.51367 0.0488281 2.34375 0.878906l2.53906 2.49023-10.8398 10.8398-2.49023-2.49023c-0.830078-0.878906-0.976562-1.2207-0.927734-2.39258l0.292969-4.3457-6.68945-6.73828-6.83594 1.17188c-1.41602 0.292969-2.05078 0.195312-3.17383-0.878906l-8.93555-8.88672c-1.07422-1.02539-1.17188-1.70898-0.488281-3.36914l4.58984-11.4746c-6.10352-6.34766-17.041-7.51953-25.5859-4.58984-0.683594 0.244141-0.927734-0.390625-0.390625-0.78125Z"/>
  </g>
  <text style="stroke:none;fill:black;font-family:sans-serif;font-size:13;font-weight:bold;" transform="matrix(1 0 0 1 1289 1953)">Exporting</text>
  <text style="stroke:none;fill:black;font-family:sans-serif;font-size:13;" transform="matrix(1 0 0 1 1289 1971)">Symbols should be outlined when exporting to ensure the</text>
  <text style="stroke:none;fill:black;font-family:sans-serif;font-size:13;" transform="matrix(1 0 0 1 1289 1989)">design is preserved when submitting to Xcode.</text>
  <text id="template-version" style="stroke:none;fill:black;font-family:sans-serif;font-size:13;text-anchor:end;" transform="matrix(1 0 0 1 3036 1933)">Template v.7.0</text>
  <text style="stroke:none;fill:black;font-family:sans-serif;font-size:13;text-anchor:end;" transform="matrix(1 0 0 1 3036 1951)">Requires Xcode 26 or greater</text>
  <text id="descriptive-name" style="stroke:none;fill:black;font-family:sans-serif;font-size:13;text-anchor:end;" transform="matrix(1 0 0 1 3036 1969)">Generated from digitalcrown.horizontal.arrow.counterclockwise.fill (recreation)</text>
  <text style="stroke:none;fill:black;font-family:sans-serif;font-size:13;text-anchor:end;" transform="matrix(1 0 0 1 3036 1987)">Typeset at 100.0 points</text>
  <text style="stroke:none;fill:black;font-family:sans-serif;font-size:13;" transform="matrix(1 0 0 1 263 726)">Small</text>
  <text style="stroke:none;fill:black;font-family:sans-serif;font-size:13;" transform="matrix(1 0 0 1 263 1156)">Medium</text>
  <text style="stroke:none;fill:black;font-family:sans-serif;font-size:13;" transform="matrix(1 0 0 1 263 1586)">Large</text>
 </g>
 <g id="Guides">
  <g id="H-reference" style="fill:#27AAE1;stroke:none;" transform="matrix(1 0 0 1 339 696)">
   <path d="M0.993654 0L3.63775 0L29.3281-67.1323L30.0303-67.1323L30.0303-70.459L28.1226-70.459ZM11.6885-24.4799L46.9815-24.4799L46.2315-26.7285L12.4385-26.7285ZM55.1196 0L57.7637 0L30.6382-70.459L29.4326-70.459L29.4326-67.1323Z"/>
  </g>
  <line id="Baseline-S" style="fill:none;stroke:#27AAE1;opacity:1;stroke-width:0.5;" x1="263" x2="3036" y1="696" y2="696"/>
  <line id="Capline-S" style="fill:none;stroke:#27AAE1;opacity:1;stroke-width:0.5;" x1="263" x2="3036" y1="625.541" y2="625.541"/>
  <g id="H-reference" style="fill:#27AAE1;stroke:none;" transform="matrix(1 0 0 1 339 1126)">
   <path d="M0.993654 0L3.63775 0L29.3281-67.1323L30.0303-67.1323L30.0303-70.459L28.1226-70.459ZM11.6885-24.4799L46.9815-24.4799L46.2315-26.7285L12.4385-26.7285ZM55.1196 0L57.7637 0L30.6382-70.459L29.4326-70.459L29.4326-67.1323Z"/>
  </g>
  <line id="Baseline-M" style="fill:none;stroke:#27AAE1;opacity:1;stroke-width:0.5;" x1="263" x2="3036" y1="1126" y2="1126"/>
  <line id="Capline-M" style="fill:none;stroke:#27AAE1;opacity:1;stroke-width:0.5;" x1="263" x2="3036" y1="1055.54" y2="1055.54"/>
  <g id="H-reference" style="fill:#27AAE1;stroke:none;" transform="matrix(1 0 0 1 339 1556)">
   <path d="M0.993654 0L3.63775 0L29.3281-67.1323L30.0303-67.1323L30.0303-70.459L28.1226-70.459ZM11.6885-24.4799L46.9815-24.4799L46.2315-26.7285L12.4385-26.7285ZM55.1196 0L57.7637 0L30.6382-70.459L29.4326-70.459L29.4326-67.1323Z"/>
  </g>
  <line id="Baseline-L" style="fill:none;stroke:#27AAE1;opacity:1;stroke-width:0.5;" x1="263" x2="3036" y1="1556" y2="1556"/>
  <line id="Capline-L" style="fill:none;stroke:#27AAE1;opacity:1;stroke-width:0.5;" x1="263" x2="3036" y1="1485.54" y2="1485.54"/>
  <line id="right-margin-Black-S" style="fill:none;stroke:#00AEEF;stroke-width:0.5;opacity:1.0;" x1="2994.87" x2="2994.87" y1="600.785" y2="720.121"/>
  <line id="left-margin-Black-S" style="fill:none;stroke:#00AEEF;stroke-width:0.5;opacity:1.0;" x1="2871.93" x2="2871.93" y1="600.785" y2="720.121"/>
  <line id="right-margin-Regular-S" style="fill:none;stroke:#00AEEF;stroke-width:0.5;opacity:1.0;" x1="1507.07" x2="1507.07" y1="600.785" y2="720.121"/>
  <line id="left-margin-Regular-S" style="fill:none;stroke:#00AEEF;stroke-width:0.5;opacity:1.0;" x1="1392.62" x2="1392.62" y1="600.785" y2="720.121"/>
  <line id="right-margin-Ultralight-S" style="fill:none;stroke:#00AEEF;stroke-width:0.5;opacity:1.0;" x1="611.239" x2="611.239" y1="600.785" y2="720.121"/>
  <line id="left-margin-Ultralight-S" style="fill:none;stroke:#00AEEF;stroke-width:0.5;opacity:1.0;" x1="508.183" x2="508.183" y1="600.785" y2="720.121"/>
 </g>
 <g id="Symbols">
  <g id="Black-S" transform="matrix(1 0 0 1 2871.93 696)">
   <path class="SFSymbolsPreviewWireframe" d="M61.4755-48.4587C36.3407-48.4587 21.9295-55.4945 21.9295-67.14C21.9295-78.7854 36.3407-85.8212 61.4755-85.8212C86.6102-85.8212 101.021-78.7854 101.021-67.14C101.021-55.4945 86.6102-48.4587 61.4755-48.4587ZM61.4755-22.4991C34.7395-22.4991 18.7755-31.4273 18.7755-50.2056L18.7755-54.7667C21.6383-51.079 25.9083-48.1191 31.4399-45.887L31.4399-40.2584C31.4399-38.5116 32.9441-37.0074 34.691-37.0074C36.4863-37.0074 37.942-38.4631 37.942-40.2584L37.942-43.8006C39.9799-43.2668 42.1634-42.8301 44.444-42.4419L44.444-38.3175C44.444-36.5222 45.8997-35.0665 47.695-35.0665C49.4904-35.0665 50.9946-36.5222 50.9946-38.3175L50.9946-41.617C53.3237-41.423 55.7013-41.2774 58.2245-41.2289L58.2245-37.5411C58.2245-35.7458 59.6801-34.3386 61.4755-34.3386C63.2708-34.3386 64.7265-35.7458 64.7265-37.5411L64.7265-41.2289C67.2497-41.2774 69.6273-41.423 71.9564-41.617L71.9564-38.3175C71.9564-36.5222 73.4606-35.0665 75.2559-35.0665C77.0513-35.0665 78.507-36.5222 78.507-38.3175L78.507-42.4419C80.7875-42.8301 82.971-43.2668 85.009-43.8006L85.009-40.2584C85.009-38.4631 86.4647-37.0074 88.26-37.0074C90.0068-37.0074 91.511-38.5116 91.511-40.2584L91.511-45.887C97.0426-48.1191 101.313-51.079 104.175-54.7667L104.175-50.2056C104.175-31.4273 88.2115-22.4991 61.4755-22.4991ZM30.3239-1.58582C30.3239-5.32207 33.5264-9.05831 38.2816-7.3115C44.5411-5.03093 51.2372-3.91491 58.5156-3.91491C66.91-3.91491 74.5281-5.41911 81.5154-8.42752L85.5427 2.92679C77.488 6.32338 68.2201 8.0702 58.5156 8.0702C50.0726 8.0702 41.7753 6.66304 34.2542 3.99429C31.4885 3.02384 30.3239 0.69475 30.3239-1.58582ZM74.3825 11.7094L69.2391-10.4655C67.9775-15.7059 73.5091-17.9865 76.7116-16.3852L92.2389-8.76718C95.5869-7.11741 96.5574-2.79888 93.9857 0.452136L83.5048 13.8929C81.0787 17.0469 75.5956 16.9499 74.3825 11.7094Z"/>
  </g>
  <g id="Regular-S" transform="matrix(1 0 0 1 1392.62 696)">
   <path class="SFSymbolsPreviewWireframe" d="M57.2275-40.478C34.254-40.478 18.9382-47.7472 18.9382-58.3982C18.9382-69.0492 34.254-76.3184 57.2275-76.3184C80.2011-76.3184 95.5169-69.0492 95.5169-58.3982C95.5169-47.7472 80.2011-40.478 57.2275-40.478ZM57.2275-19.7979C32.7768-19.7979 17.9275-26.6394 17.9275-42.8881L17.9275-47.3196C20.8041-44.0154 25.0023-41.3332 30.3278-39.3507L30.3278-34.0641C30.3278-32.6647 31.494-31.5374 32.8934-31.5374C34.2928-31.5374 35.4201-32.6647 35.4201-34.0641L35.4201-37.6792C37.6747-37.0961 40.0848-36.6296 42.2617-36.2798L42.2617-31.4207C42.2617-30.0213 43.389-28.894 44.7884-28.894C46.1878-28.894 47.354-30.0213 47.354-31.4207L47.354-35.619C49.8807-35.3857 52.7572-35.1914 55.1673-35.1525L55.1673-30.4489C55.1673-29.0495 56.2946-27.8834 57.694-27.8834C59.0934-27.8834 60.2596-29.0495 60.2596-30.4489L60.2596-35.1914C62.8252-35.2302 65.5074-35.4246 68.0341-35.6967L68.0341-31.4207C68.0341-30.0213 69.2002-28.894 70.5996-28.894C71.9991-28.894 73.1264-30.0213 73.1264-31.4207L73.1264-36.4353C75.5364-36.824 77.791-37.3293 79.9679-37.9513L79.9679-34.0641C79.9679-32.6647 81.0952-31.5374 82.4946-31.5374C83.894-31.5374 85.0602-32.6647 85.0602-34.0641L85.0602-39.7006C89.9581-41.6442 93.8453-44.2098 96.5275-47.3196L96.5275-42.8881C96.5275-26.6394 81.7172-19.7979 57.2275-19.7979ZM26.0907-2.1887C26.0907-3.97683 27.6068-5.76496 29.978-4.87089C37.286-2.1887 45.0994-0.828164 53.6902-0.828164C62.2421-0.828164 70.0943-2.1887 77.4023-4.87089L79.3848 0.648988C71.4548 3.56442 62.9029 5.04157 53.6902 5.04157C44.4385 5.04157 35.9255 3.52555 27.9955 0.648988C26.635 0.182519 26.0907-1.02253 26.0907-2.1887ZM76.0029 8.07362L70.1332-8.71926C69.2391-11.246 71.7269-13.1118 73.8261-12.3733L87.3537-7.63083C89.1807-7.00888 89.8415-5.18187 88.8308-3.51036L81.1341 8.61783C79.929 10.5226 76.8581 10.4448 76.0029 8.07362Z"/>
  </g>
  <g id="Ultralight-S" transform="matrix(1 0 0 1 508.183 696)">
   <path class="SFSymbolsPreviewWireframe" d="M51.5275-43.5364C30.548-43.5364 16.5124-49.4461 16.5124-58.1629C16.5124-66.8305 30.548-72.7894 51.5275-72.7894C72.5562-72.7894 86.5425-66.8305 86.5425-58.1629C86.5425-49.4461 72.5562-43.5364 51.5275-43.5364ZM51.5275-23.5911C29.8585-23.5911 15.5275-29.7963 15.5275-44.0781L15.5275-51.5637C17.5959-48.6581 21.1417-46.1957 25.8695-44.3736L25.8695-37.4789C25.8695-36.8879 26.362-36.3955 26.9037-36.3955C27.5439-36.3955 28.0364-36.8879 28.0364-37.4789L28.0364-43.5364C31.3852-42.4529 35.325-41.7142 37.6889-41.3695L37.6889-34.524C37.6889-33.8838 38.1814-33.4406 38.7231-33.4406C39.3633-33.4406 39.8558-33.8838 39.8558-34.524L39.8558-41.074C43.4016-40.68 48.0802-40.4338 50.4933-40.4338L50.4933-33.5391C50.4933-32.8989 50.9858-32.4556 51.5275-32.4556C52.1677-32.4556 52.6602-32.8989 52.6602-33.5391L52.6602-40.4338C55.8613-40.4338 59.7026-40.68 63.2977-41.074L63.2977-34.524C63.2977-33.8838 63.7901-33.4406 64.3319-33.4406C64.9721-33.4406 65.4646-33.8838 65.4646-34.524L65.4646-41.3695C68.7641-41.9604 72.0637-42.6006 75.1171-43.5856L75.1171-37.4789C75.1171-36.8879 75.6096-36.3955 76.1513-36.3955C76.7915-36.3955 77.284-36.8879 77.284-37.4789L77.284-44.4228C81.9625-46.245 85.4591-48.6581 87.5275-51.5637L87.5275-44.0781C87.5275-29.7963 73.1472-23.5911 51.5275-23.5911ZM23.1609-7.19163C23.1609-7.93034 23.8011-8.57056 24.7368-8.27507C32.3209-5.41871 39.4618-4.13827 47.4399-4.13827C55.3688-4.13827 62.5589-5.41871 70.1431-8.27507L70.931-6.15743C63.0022-3.25182 55.615-1.92213 47.4399-1.92213C39.2648-1.92213 31.8777-3.25182 23.9488-6.15743C23.3579-6.40366 23.1609-6.7484 23.1609-7.19163ZM69.4044 1.91918L65.2183-12.6089C64.8736-13.9878 66.154-14.825 67.4345-14.3818L79.1061-10.2942C80.2388-9.94949 80.7806-8.57056 79.9926-7.43786L72.31 2.21467C71.3743 3.29811 69.7983 3.24887 69.4044 1.91918Z"/>
  </g>
 </g>
</svg>
