<?xml version="1.0" encoding="UTF-8" standalone="no"?>
<!DOCTYPE svg PUBLIC "-//W3C//DTD SVG 1.1//EN" "http://www.w3.org/Graphics/SVG/1.1/DTD/svg11.dtd">
<svg width="100%" height="100%" viewBox="0 0 36 36" version="1.1" xmlns="http://www.w3.org/2000/svg" xmlns:xlink="http://www.w3.org/1999/xlink" xml:space="preserve" xmlns:serif="http://www.serif.com/" style="fill-rule:evenodd;clip-rule:evenodd;stroke-linejoin:round;stroke-miterlimit:2;">
    <path d="M17.989,35.429C27.622,35.429 35.44,27.632 35.44,18C35.44,8.368 27.622,0.571 17.989,0.571C8.378,0.571 0.56,8.368 0.56,18C0.56,27.632 8.378,35.429 17.989,35.429ZM17.989,32.146C10.171,32.146 3.865,25.818 3.865,18C3.865,10.182 10.171,3.854 17.989,3.854C25.807,3.854 32.135,10.182 32.135,18C32.135,25.818 25.807,32.146 17.989,32.146Z" style="fill:#047ff5;fill-opacity:0.4;fill-rule:nonzero;"/>
    <path d="M17.968,12.32C15.592,12.32 12.201,11.931 10.581,11.672C10.43,11.65 10.279,11.607 10.128,11.607C9.696,11.607 9.264,11.953 9.264,12.557C9.264,13.011 9.545,13.4 9.977,13.508C10.517,13.681 14.339,14.134 14.814,14.22C15.29,14.307 15.57,14.717 15.592,15.3C15.592,16.164 15.592,18.95 15.376,20.225C15.182,21.477 13.713,27.568 13.648,27.827C13.454,28.475 13.864,29.058 14.512,29.058C14.987,29.058 15.311,28.799 15.484,28.172C15.765,26.941 16.823,22.73 17.169,21.715C17.363,20.98 17.557,20.721 17.968,20.721C18.378,20.721 18.551,20.98 18.788,21.715C19.091,22.73 20.192,26.941 20.473,28.172C20.646,28.799 20.97,29.058 21.445,29.058C22.093,29.058 22.481,28.475 22.309,27.827C22.265,27.568 20.775,21.477 20.581,20.225C20.387,18.95 20.387,16.164 20.387,15.3C20.387,14.717 20.667,14.328 21.142,14.22C21.618,14.112 25.44,13.681 25.98,13.508C26.412,13.4 26.693,13.011 26.693,12.557C26.693,11.953 26.239,11.607 25.829,11.607C25.678,11.607 25.527,11.65 25.376,11.672C24.634,11.791 23.525,11.937 22.309,12.06C20.869,12.206 19.279,12.32 17.968,12.32ZM17.968,11.218C19.177,11.218 20.171,10.225 20.171,9.037C20.171,7.828 19.177,6.856 17.968,6.856C16.758,6.856 15.786,7.828 15.786,9.037C15.786,10.225 16.758,11.218 17.968,11.218Z" style="fill:#0470f5;fill-rule:nonzero;"/>
</svg>
