<?xml version="1.0" encoding="UTF-8"?>
<!--Generator: Apple Native CoreSVG 341-->
<!DOCTYPE svg
PUBLIC "-//W3C//DTD SVG 1.1//EN"
       "http://www.w3.org/Graphics/SVG/1.1/DTD/svg11.dtd">
<svg version="1.1" xmlns="http://www.w3.org/2000/svg" xmlns:xlink="http://www.w3.org/1999/xlink" viewBox="0 0 3300 2200">
 <!--glyph: "102076", point size: 100.0, font version: "21.0d6e2", template writer version: "138.0.0"-->
 <style>.SFSymbolsPreviewWireframe {fill:none;opacity:1.0;stroke:black;stroke-width:0.5}
</style>
 <g id="Notes">
  <rect height="2200" id="artboard" style="fill:white;opacity:1" width="3300" x="0" y="0"/>
  <line style="fill:none;stroke:black;opacity:1;stroke-width:0.5;" x1="263" x2="3036" y1="292" y2="292"/>
  <text style="stroke:none;fill:black;font-family:sans-serif;font-size:13;font-weight:bold;" transform="matrix(1 0 0 1 263 322)">Weight/Scale Variations</text>
  <text style="stroke:none;fill:black;font-family:sans-serif;font-size:13;text-anchor:middle;" transform="matrix(1 0 0 1 559.711 322)">Ultralight</text>
  <text style="stroke:none;fill:black;font-family:sans-serif;font-size:13;text-anchor:middle;" transform="matrix(1 0 0 1 856.422 322)">Thin</text>
  <text style="stroke:none;fill:black;font-family:sans-serif;font-size:13;text-anchor:middle;" transform="matrix(1 0 0 1 1153.13 322)">Light</text>
  <text style="stroke:none;fill:black;font-family:sans-serif;font-size:13;text-anchor:middle;" transform="matrix(1 0 0 1 1449.84 322)">Regular</text>
  <text style="stroke:none;fill:black;font-family:sans-serif;font-size:13;text-anchor:middle;" transform="matrix(1 0 0 1 1746.56 322)">Medium</text>
  <text style="stroke:none;fill:black;font-family:sans-serif;font-size:13;text-anchor:middle;" transform="matrix(1 0 0 1 2043.27 322)">Semibold</text>
  <text style="stroke:none;fill:black;font-family:sans-serif;font-size:13;text-anchor:middle;" transform="matrix(1 0 0 1 2339.98 322)">Bold</text>
  <text style="stroke:none;fill:black;font-family:sans-serif;font-size:13;text-anchor:middle;" transform="matrix(1 0 0 1 2636.69 322)">Heavy</text>
  <text style="stroke:none;fill:black;font-family:sans-serif;font-size:13;text-anchor:middle;" transform="matrix(1 0 0 1 2933.4 322)">Black</text>
  <line style="fill:none;stroke:black;opacity:1;stroke-width:0.5;" x1="263" x2="3036" y1="1903" y2="1903"/>
  <g transform="matrix(0.2 0 0 0.2 263 1933)">
   <path d="m46.2402 4.15039c21.7773 0 39.4531-17.627 39.4531-39.4043s-17.6758-39.4043-39.4531-39.4043c-21.7285 0-39.4043 17.627-39.4043 39.4043s17.6758 39.4043 39.4043 39.4043Zm0-7.42188c-17.6758 0-31.9336-14.3066-31.9336-31.9824s14.2578-31.9824 31.9336-31.9824 31.9824 14.3066 31.9824 31.9824-14.3066 31.9824-31.9824 31.9824Zm3.61328-17.7734v-28.4668c0-2.24609-1.46484-3.75977-3.71094-3.75977-2.14844 0-3.61328 1.51367-3.61328 3.75977v28.4668c0 2.19727 1.46484 3.71094 3.61328 3.71094 2.24609 0 3.71094-1.51367 3.71094-3.71094Zm-17.8223-10.5957h28.418c2.19727 0 3.71094-1.46484 3.71094-3.61328 0-2.19727-1.51367-3.71094-3.71094-3.71094h-28.418c-2.24609 0-3.75977 1.51367-3.75977 3.71094 0 2.14844 1.51367 3.61328 3.75977 3.61328Z"/>
  </g>
  <g transform="matrix(0.2 0 0 0.2 281.506 1933)">
   <path d="m58.5449 14.5508c27.4902 0 49.8047-22.3145 49.8047-49.8047s-22.3145-49.8047-49.8047-49.8047-49.8047 22.3145-49.8047 49.8047 22.3145 49.8047 49.8047 49.8047Zm0-8.30078c-22.9492 0-41.5039-18.5547-41.5039-41.5039s18.5547-41.5039 41.5039-41.5039 41.5039 18.5547 41.5039 41.5039-18.5547 41.5039-41.5039 41.5039Zm4.05273-23.0957v-36.9141c0-2.49023-1.70898-4.19922-4.15039-4.19922-2.39258 0-4.05273 1.70898-4.05273 4.19922v36.9141c0 2.44141 1.66016 4.15039 4.05273 4.15039 2.44141 0 4.15039-1.66016 4.15039-4.15039Zm-22.5586-14.4043h36.9629c2.44141 0 4.15039-1.61133 4.15039-4.00391 0-2.44141-1.70898-4.15039-4.15039-4.15039h-36.9629c-2.49023 0-4.15039 1.70898-4.15039 4.15039 0 2.39258 1.66016 4.00391 4.15039 4.00391Z"/>
  </g>
  <g transform="matrix(0.2 0 0 0.2 304.924 1933)">
   <path d="m74.8535 28.3203c35.1074 0 63.623-28.4668 63.623-63.5742s-28.5156-63.623-63.623-63.623-63.5742 28.5156-63.5742 63.623 28.4668 63.5742 63.5742 63.5742Zm0-9.08203c-30.127 0-54.4922-24.3652-54.4922-54.4922s24.3652-54.4922 54.4922-54.4922 54.4922 24.3652 54.4922 54.4922-24.3652 54.4922-54.4922 54.4922Zm4.44336-30.3223v-48.4863c0-2.73438-1.85547-4.63867-4.54102-4.63867-2.58789 0-4.44336 1.9043-4.44336 4.63867v48.4863c0 2.68555 1.85547 4.58984 4.44336 4.58984 2.68555 0 4.54102-1.85547 4.54102-4.58984Zm-28.7109-19.7754h48.4863c2.68555 0 4.58984-1.80664 4.58984-4.39453 0-2.73438-1.85547-4.58984-4.58984-4.58984h-48.4863c-2.73438 0-4.58984 1.85547-4.58984 4.58984 0 2.58789 1.85547 4.39453 4.58984 4.39453Z"/>
  </g>
  <text style="stroke:none;fill:black;font-family:sans-serif;font-size:13;font-weight:bold;" transform="matrix(1 0 0 1 263 1953)">Design Variations</text>
  <text style="stroke:none;fill:black;font-family:sans-serif;font-size:13;" transform="matrix(1 0 0 1 263 1971)">Symbols are supported in up to nine weights and three scales.</text>
  <text style="stroke:none;fill:black;font-family:sans-serif;font-size:13;" transform="matrix(1 0 0 1 263 1989)">For optimal layout with text and other symbols, vertically align</text>
  <text style="stroke:none;fill:black;font-family:sans-serif;font-size:13;" transform="matrix(1 0 0 1 263 2007)">symbols with the adjacent text.</text>
  <line style="fill:none;stroke:#00AEEF;stroke-width:0.5;opacity:1.0;" x1="776" x2="776" y1="1919" y2="1933"/>
  <g transform="matrix(0.2 0 0 0.2 776 1933)">
   <path d="m16.5527 0.78125c2.58789 0 3.85742-0.976562 4.78516-3.71094l20.5566-57.5195h0.244141l20.6055 57.5195c0.927734 2.73438 2.19727 3.71094 4.73633 3.71094 2.58789 0 4.24805-1.5625 4.24805-4.00391 0-0.830078-0.146484-1.61133-0.537109-2.63672l-22.9004-60.9863c-1.12305-2.97852-3.125-4.49219-6.25-4.49219-3.02734 0-5.07812 1.46484-6.15234 4.44336l-22.9004 61.084c-0.390625 1.02539-0.537109 1.80664-0.537109 2.63672 0 2.44141 1.5625 3.95508 4.10156 3.95508Zm10.2051-20.9473h30.6641c2.00195 0 3.66211-1.66016 3.66211-3.66211 0-2.05078-1.66016-3.66211-3.66211-3.66211h-30.6641c-2.00195 0-3.66211 1.61133-3.66211 3.66211 0 2.00195 1.66016 3.66211 3.66211 3.66211Z"/>
  </g>
  <line style="fill:none;stroke:#00AEEF;stroke-width:0.5;opacity:1.0;" x1="792.836" x2="792.836" y1="1919" y2="1933"/>
  <text style="stroke:none;fill:black;font-family:sans-serif;font-size:13;font-weight:bold;" transform="matrix(1 0 0 1 776 1953)">Margins</text>
  <text style="stroke:none;fill:black;font-family:sans-serif;font-size:13;" transform="matrix(1 0 0 1 776 1971)">Leading and trailing margins on the left and right side of each symbol</text>
  <text style="stroke:none;fill:black;font-family:sans-serif;font-size:13;" transform="matrix(1 0 0 1 776 1989)">can be adjusted by modifying the x-location of the margin guidelines.</text>
  <text style="stroke:none;fill:black;font-family:sans-serif;font-size:13;" transform="matrix(1 0 0 1 776 2007)">Modifications are automatically applied proportionally to all</text>
  <text style="stroke:none;fill:black;font-family:sans-serif;font-size:13;" transform="matrix(1 0 0 1 776 2025)">scales and weights.</text>
  <g transform="matrix(0.2 0 0 0.2 1289 1933)">
   <path d="m14.209 13.1348 7.86133 7.86133c4.29688 4.39453 9.32617 4.10156 13.8672-1.02539l60.6934-68.2129-4.88281-4.88281-60.2539 67.6758c-1.80664 1.95312-3.4668 2.44141-5.81055 0.0976562l-5.17578-5.12695c-2.29492-2.29492-1.80664-3.95508 0.195312-5.81055l67.4805-62.1582-4.88281-4.83398-68.0664 62.5977c-4.98047 4.58984-5.32227 9.47266-1.02539 13.8184Zm44.873-97.4609c-2.05078 2.00195-2.24609 4.88281-1.07422 6.78711 1.12305 1.80664 3.4668 3.02734 6.5918 2.24609 5.85938-1.66016 12.5977-2.39258 18.8965 0.927734l-2.68555 7.12891c-1.61133 4.00391-0.732422 6.88477 1.70898 9.42383l10.2539 10.3027c2.34375 2.39258 4.54102 2.44141 7.08008 1.95312l4.44336-0.732422 2.58789 2.53906-0.195312 2.24609c-0.0976562 2.29492 0.537109 4.29688 2.7832 6.49414l3.36914 3.32031c2.29492 2.29492 5.51758 2.49023 7.8125 0.195312l12.9883-13.0371c2.29492-2.34375 2.14844-5.37109-0.195312-7.66602l-3.41797-3.41797c-2.19727-2.19727-4.05273-3.02734-6.34766-2.88086l-2.34375 0.244141-2.44141-2.44141 1.02539-4.6875c0.634766-2.73438-0.244141-4.98047-2.88086-7.61719l-11.2793-11.1816c-12.9395-12.8418-35.5957-11.0352-46.6797-0.146484Zm7.08008 2.05078c8.78906-6.39648 25.9766-5.66406 33.6914 1.95312l12.3047 12.207c1.02539 1.02539 1.2207 1.80664 0.927734 3.32031l-1.46484 6.64062 6.73828 6.68945 4.39453-0.244141c1.12305-0.0488281 1.51367 0.0488281 2.34375 0.878906l2.53906 2.49023-10.8398 10.8398-2.49023-2.49023c-0.830078-0.878906-0.976562-1.2207-0.927734-2.39258l0.292969-4.3457-6.68945-6.73828-6.83594 1.17188c-1.41602 0.292969-2.05078 0.195312-3.17383-0.878906l-8.93555-8.88672c-1.07422-1.02539-1.17188-1.70898-0.488281-3.36914l4.58984-11.4746c-6.10352-6.34766-17.041-7.51953-25.5859-4.58984-0.683594 0.244141-0.927734-0.390625-0.390625-0.78125Z"/>
  </g>
  <text style="stroke:none;fill:black;font-family:sans-serif;font-size:13;font-weight:bold;" transform="matrix(1 0 0 1 1289 1953)">Exporting</text>
  <text style="stroke:none;fill:black;font-family:sans-serif;font-size:13;" transform="matrix(1 0 0 1 1289 1971)">Symbols should be outlined when exporting to ensure the</text>
  <text style="stroke:none;fill:black;font-family:sans-serif;font-size:13;" transform="matrix(1 0 0 1 1289 1989)">design is preserved when submitting to Xcode.</text>
  <text id="template-version" style="stroke:none;fill:black;font-family:sans-serif;font-size:13;text-anchor:end;" transform="matrix(1 0 0 1 3036 1933)">Template v.7.0</text>
  <text style="stroke:none;fill:black;font-family:sans-serif;font-size:13;text-anchor:end;" transform="matrix(1 0 0 1 3036 1951)">Requires Xcode 17 or greater</text>
  <text id="descriptive-name" style="stroke:none;fill:black;font-family:sans-serif;font-size:13;text-anchor:end;" transform="matrix(1 0 0 1 3036 1969)">Generated from button.horizontal.top.press</text>
  <text style="stroke:none;fill:black;font-family:sans-serif;font-size:13;text-anchor:end;" transform="matrix(1 0 0 1 3036 1987)">Typeset at 100.0 points</text>
  <text style="stroke:none;fill:black;font-family:sans-serif;font-size:13;" transform="matrix(1 0 0 1 263 726)">Small</text>
  <text style="stroke:none;fill:black;font-family:sans-serif;font-size:13;" transform="matrix(1 0 0 1 263 1156)">Medium</text>
  <text style="stroke:none;fill:black;font-family:sans-serif;font-size:13;" transform="matrix(1 0 0 1 263 1586)">Large</text>
 </g>
 <g id="Guides">
  <g id="H-reference" style="fill:#27AAE1;stroke:none;" transform="matrix(1 0 0 1 339 696)">
   <path d="M0.993654 0L3.63775 0L29.3281-67.1323L30.0303-67.1323L30.0303-70.459L28.1226-70.459ZM11.6885-24.4799L46.9815-24.4799L46.2315-26.7285L12.4385-26.7285ZM55.1196 0L57.7637 0L30.6382-70.459L29.4326-70.459L29.4326-67.1323Z"/>
  </g>
  <line id="Baseline-S" style="fill:none;stroke:#27AAE1;opacity:1;stroke-width:0.5;" x1="263" x2="3036" y1="696" y2="696"/>
  <line id="Capline-S" style="fill:none;stroke:#27AAE1;opacity:1;stroke-width:0.5;" x1="263" x2="3036" y1="625.541" y2="625.541"/>
  <g id="H-reference" style="fill:#27AAE1;stroke:none;" transform="matrix(1 0 0 1 339 1126)">
   <path d="M0.993654 0L3.63775 0L29.3281-67.1323L30.0303-67.1323L30.0303-70.459L28.1226-70.459ZM11.6885-24.4799L46.9815-24.4799L46.2315-26.7285L12.4385-26.7285ZM55.1196 0L57.7637 0L30.6382-70.459L29.4326-70.459L29.4326-67.1323Z"/>
  </g>
  <line id="Baseline-M" style="fill:none;stroke:#27AAE1;opacity:1;stroke-width:0.5;" x1="263" x2="3036" y1="1126" y2="1126"/>
  <line id="Capline-M" style="fill:none;stroke:#27AAE1;opacity:1;stroke-width:0.5;" x1="263" x2="3036" y1="1055.54" y2="1055.54"/>
  <g id="H-reference" style="fill:#27AAE1;stroke:none;" transform="matrix(1 0 0 1 339 1556)">
   <path d="M0.993654 0L3.63775 0L29.3281-67.1323L30.0303-67.1323L30.0303-70.459L28.1226-70.459ZM11.6885-24.4799L46.9815-24.4799L46.2315-26.7285L12.4385-26.7285ZM55.1196 0L57.7637 0L30.6382-70.459L29.4326-70.459L29.4326-67.1323Z"/>
  </g>
  <line id="Baseline-L" style="fill:none;stroke:#27AAE1;opacity:1;stroke-width:0.5;" x1="263" x2="3036" y1="1556" y2="1556"/>
  <line id="Capline-L" style="fill:none;stroke:#27AAE1;opacity:1;stroke-width:0.5;" x1="263" x2="3036" y1="1485.54" y2="1485.54"/>
  <line id="right-margin-Black-S" style="fill:none;stroke:#00AEEF;stroke-width:0.5;opacity:1.0;" x1="2992.63" x2="2992.63" y1="600.785" y2="720.121"/>
  <line id="left-margin-Black-S" style="fill:none;stroke:#00AEEF;stroke-width:0.5;opacity:1.0;" x1="2874.17" x2="2874.17" y1="600.785" y2="720.121"/>
  <line id="right-margin-Regular-S" style="fill:none;stroke:#00AEEF;stroke-width:0.5;opacity:1.0;" x1="1507.56" x2="1507.56" y1="600.785" y2="720.121"/>
  <line id="left-margin-Regular-S" style="fill:none;stroke:#00AEEF;stroke-width:0.5;opacity:1.0;" x1="1392.13" x2="1392.13" y1="600.785" y2="720.121"/>
  <line id="right-margin-Ultralight-S" style="fill:none;stroke:#00AEEF;stroke-width:0.5;opacity:1.0;" x1="610.546" x2="610.546" y1="600.785" y2="720.121"/>
  <line id="left-margin-Ultralight-S" style="fill:none;stroke:#00AEEF;stroke-width:0.5;opacity:1.0;" x1="508.876" x2="508.876" y1="600.785" y2="720.121"/>
 </g>
 <g id="Symbols">
  <g id="Black-S" transform="matrix(1 0 0 1 2874.17 696)">
   <path class="SFSymbolsPreviewWireframe" d="M36.9141-1.41602L81.543-1.41602C98.2422-1.41602 108.691-11.2793 108.691-26.4648C108.691-41.6504 98.2422-51.5137 81.543-51.5137L36.9141-51.5137C20.2148-51.5137 9.76562-41.6504 9.76562-26.4648C9.76562-11.2793 20.2148-1.41602 36.9141-1.41602ZM81.543-15.5273L36.9141-15.5273C28.9062-15.5273 23.877-19.9219 23.877-26.4648C23.877-33.0078 28.9062-37.4023 36.9141-37.4023L81.543-37.4023C89.5508-37.4023 94.5801-33.0078 94.5801-26.4648C94.5801-19.9219 89.5508-15.5273 81.543-15.5273ZM36.9141 17.8223L81.543 17.8223C98.2422 17.8223 108.691 7.12891 108.691-9.96094L108.691-26.4648L94.5801-26.4648L94.5801-9.96094C94.5801-1.61133 89.5508 3.66211 81.543 3.66211L36.9141 3.66211C28.9062 3.66211 23.877-1.61133 23.877-9.96094L23.877-26.4648L9.76562-26.4648L9.76562-9.96094C9.76562 7.12891 20.2148 17.8223 36.9141 17.8223ZM66.9922-39.0137L79.6875-53.5156C86.0352-60.791 81.3965-71.3867 71.6309-71.3867L71.4844-71.3867L71.4844-82.9102C71.4844-90.0879 66.0156-95.166 59.1797-95.166C52.3438-95.166 46.875-90.0879 46.875-82.9102L46.875-71.3867L46.582-71.3867C37.1094-71.3867 32.4707-60.7422 38.6719-53.5645L51.3184-39.0137C55.5176-34.1797 62.7441-34.1797 66.9922-39.0137ZM53.2227-82.4219L53.2227-59.9121C53.2227-56.25 55.8594-54.0039 59.1797-54.0039C62.5-54.0039 65.1367-56.25 65.1367-59.9121L65.1367-82.4219C65.1367-86.084 62.5-88.3301 59.1797-88.3301C55.8594-88.3301 53.2227-86.084 53.2227-82.4219ZM71.6309-64.5508L46.582-64.5508C42.5293-64.5508 40.7715-60.3027 43.457-57.2266L56.1035-42.7246C57.8125-40.7715 60.498-40.7715 62.207-42.7246L74.9023-57.2266C77.6855-60.4004 75.9766-64.5508 71.6309-64.5508Z"/>
  </g>
  <g id="Regular-S" transform="matrix(1 0 0 1 1392.13 696)">
   <path class="SFSymbolsPreviewWireframe" d="M31.2988-6.15234L84.1309-6.15234C96.6309-6.15234 105.664-13.623 105.664-25.4395C105.664-37.3047 96.6309-44.7754 84.1309-44.7754L31.2988-44.7754C18.7988-44.7754 9.76562-37.3047 9.76562-25.4395C9.76562-13.623 18.7988-6.15234 31.2988-6.15234ZM84.1309-13.1836L31.2988-13.1836C23.0957-13.1836 16.7969-17.9199 16.7969-25.4395C16.7969-33.0078 23.0957-37.7441 31.2988-37.7441L84.1309-37.7441C92.2852-37.7441 98.584-33.0078 98.584-25.4395C98.584-17.9199 92.2852-13.1836 84.1309-13.1836ZM31.2988 8.20312L84.1309 8.20312C97.3145 8.20312 105.664-0.390625 105.664-13.9648L105.664-25.4395L98.584-25.4395L98.584-13.9648C98.584-4.73633 92.9688 1.12305 84.1309 1.12305L31.2988 1.12305C22.4121 1.12305 16.7969-4.73633 16.7969-13.9648L16.7969-25.4395L9.76562-25.4395L9.76562-13.9648C9.76562-0.390625 18.1152 8.20312 31.2988 8.20312ZM64.4531-32.0801L75.1465-43.8965C80.7129-50 76.8066-59.5215 68.2129-59.5215L67.1875-59.5215L67.1875-74.9512C67.1875-80.1758 62.9395-84.375 57.7637-84.375C52.4902-84.375 48.291-80.1758 48.291-74.9512L48.291-59.5215L47.168-59.5215C38.7695-59.5215 34.6191-50.1465 40.2344-43.9453L50.8789-32.0801C54.6875-27.8809 60.6445-27.8809 64.4531-32.0801ZM54.0039-74.9512L54.0039-47.3145C54.0039-45.2148 55.6152-43.5547 57.7637-43.5547C59.8145-43.5547 61.4746-45.2148 61.4746-47.3145L61.4746-74.9512C61.4746-77.0508 59.8145-78.7109 57.7637-78.7109C55.6152-78.7109 54.0039-77.0508 54.0039-74.9512ZM68.2129-53.8086L47.168-53.8086C43.6523-53.8086 42.1387-50.3418 44.4824-47.7051L55.127-35.8887C56.6406-34.1797 58.6914-34.1797 60.2539-35.8887L70.8984-47.7051C73.1445-50.1953 71.875-53.8086 68.2129-53.8086Z"/>
  </g>
  <g id="Ultralight-S" transform="matrix(1 0 0 1 508.876 696)">
   <path class="SFSymbolsPreviewWireframe" d="M25.4864-9.46726L76.1841-9.46726C85.46-9.46726 91.9049-15.8027 91.9049-24.8945C91.9049-33.9898 85.46-40.3706 76.1841-40.3706L25.4864-40.3706C16.2559-40.3706 9.76562-33.9898 9.76562-24.8945C9.76562-15.8027 16.2559-9.46726 25.4864-9.46726ZM76.1841-11.6397L25.4864-11.6397C17.5557-11.6397 11.9834-17.1025 11.9834-24.8945C11.9834-32.6899 17.5557-38.1528 25.4864-38.1528L76.1841-38.1528C84.1114-38.1528 89.7291-32.6899 89.7291-24.8945C89.7291-17.1025 84.1114-11.6397 76.1841-11.6397ZM25.4864-0.515556L76.1841-0.515556C85.4625-0.515556 91.9049-7.56537 91.9049-17.6884L91.9049-24.8945L89.7291-24.8945L89.7291-17.6884C89.7291-8.86862 84.1592-2.73679 76.1841-2.73679L25.4864-2.73679C17.5533-2.73679 11.9834-8.86862 11.9834-17.6884L11.9834-24.8945L9.76562-24.8945L9.76562-17.6884C9.76562-7.56537 16.208-0.515556 25.4864-0.515556ZM54.7354-34.8047L63.2037-45.3042C65.7731-48.4107 63.8194-53.1187 59.7213-53.1187L55.0631-53.1187L55.0631-68.7754C55.0631-71.1846 53.1763-73.0226 50.8614-73.0226C48.4488-73.0226 46.6109-71.1846 46.6109-68.7754L46.6109-53.1187L41.9913-53.1187C37.9067-53.1187 35.936-48.4209 38.4634-45.3076L46.9283-34.8501C48.9205-32.3764 52.6524-32.1948 54.7354-34.8047ZM49.69-68.7754L49.69-45.5889C49.69-44.897 50.1206-44.4175 50.8614-44.4175C51.5045-44.4175 51.984-44.897 51.984-45.5889L51.984-68.7754C51.984-69.4673 51.5045-69.9468 50.8614-69.9468C50.1206-69.9468 49.69-69.4673 49.69-68.7754ZM59.7213-50.0396L41.9913-50.0396C40.4737-50.0396 39.9136-48.3892 40.8496-47.251L49.3145-36.7515C50.1016-35.8144 51.5167-35.7236 52.3526-36.7515L60.8175-47.251C61.7921-48.3789 61.2037-50.0396 59.7213-50.0396Z"/>
  </g>
 </g>
</svg>
