<?xml version="1.0" encoding="UTF-8" standalone="no"?>
<!DOCTYPE svg PUBLIC "-//W3C//DTD SVG 1.1//EN" "http://www.w3.org/Graphics/SVG/1.1/DTD/svg11.dtd">
<svg width="100%" height="100%" viewBox="0 0 64 64" version="1.1" xmlns="http://www.w3.org/2000/svg" xmlns:xlink="http://www.w3.org/1999/xlink" xml:space="preserve" xmlns:serif="http://www.serif.com/" style="fill-rule:evenodd;clip-rule:evenodd;stroke-linejoin:round;stroke-miterlimit:2;">
    <g id="Bottom" transform="matrix(0.0544619,0,0,0.0636748,-25.4573,-26.1928)">
        <path d="M1600,1165.68L1600,1245.29C1600,1313.34 1355.79,1368.59 1055,1368.59C754.206,1368.59 510,1313.34 510,1245.29L510,1165.68C597.108,1218.07 808.418,1255.07 1055,1255.07C1301.58,1255.07 1512.89,1218.07 1600,1165.68Z" style="fill-opacity:0.82;"/>
    </g>
    <g id="Middle" transform="matrix(0.0542833,0,0,0.0719009,-25.2417,-34.9295)">
        <path d="M1644,657.973L1644,1106.5C1644,1176.31 1379.85,1232.99 1054.5,1232.99C729.146,1232.99 465,1176.31 465,1106.5L465,657.973C465,693.787 729.146,722.863 1054.5,722.863C1379.85,722.863 1644,693.787 1644,657.973Z" style="fill-opacity:0.5;"/>
    </g>
    <g id="Top" transform="matrix(0.0709534,0,0,0.137225,-41.9335,-75.7187)">
        <ellipse cx="1042" cy="642" rx="451" ry="34" style="fill-opacity:0.3;"/>
    </g>
</svg>
