<?xml version="1.0" encoding="UTF-8" standalone="no"?>
<!DOCTYPE svg PUBLIC "-//W3C//DTD SVG 1.1//EN" "http://www.w3.org/Graphics/SVG/1.1/DTD/svg11.dtd">
<svg width="100%" height="100%" viewBox="0 0 1064 731" version="1.1" xmlns="http://www.w3.org/2000/svg" xmlns:xlink="http://www.w3.org/1999/xlink" xml:space="preserve" xmlns:serif="http://www.serif.com/" style="fill-rule:evenodd;clip-rule:evenodd;stroke-linejoin:round;stroke-miterlimit:2;">
    <g id="Base" transform="matrix(0.905221,0,0,1.07561,-0.132131,-40.0738)">
        <g transform="matrix(1,0,0,0.755393,-467.288,-317.551)">
            <rect x="510" y="1122" width="1090" height="123.294" style="fill:rgb(61,61,61);"/>
        </g>
        <g transform="matrix(1.20843,0,0,2.73928,-671.467,-1135.48)">
            <ellipse cx="1042" cy="642" rx="451" ry="34" style="fill:rgb(61,61,61);"/>
        </g>
    </g>
    <g id="Middle" transform="matrix(0.902252,0,0,1,-419.547,-589)">
        <g transform="matrix(0.999153,0,0,2.92281,-0.605085,-1221.39)">
            <rect x="466" y="643" width="1180" height="160" style="fill:rgb(145,145,145);"/>
        </g>
        <g transform="matrix(1.3071,0,0,3.87891,-307.493,-1364.64)">
            <ellipse cx="1042" cy="642" rx="451" ry="34" style="fill:rgb(145,145,145);"/>
        </g>
    </g>
    <g transform="matrix(1.17933,0,0,2.02862,-696.984,-1233.4)">
        <g id="Top">
            <ellipse cx="1042" cy="642" rx="451" ry="34" style="fill:rgb(176,176,176);"/>
        </g>
    </g>
</svg>
