<?xml version="1.0" encoding="UTF-8"?>
<!--Generator: Apple Native CoreSVG 341-->
<!DOCTYPE svg
PUBLIC "-//W3C//DTD SVG 1.1//EN"
       "http://www.w3.org/Graphics/SVG/1.1/DTD/svg11.dtd">
<svg version="1.1" xmlns="http://www.w3.org/2000/svg" xmlns:xlink="http://www.w3.org/1999/xlink" viewBox="0 0 3300 2200">
 <!--glyph: "", point size: 100.0, font version: "21.1d1e1", template writer version: "138.0.0"-->
 <style>.SFSymbolsPreviewWireframe {fill:none;opacity:1.0;stroke:black;stroke-width:0.5}
</style>
 <g id="Notes">
  <rect height="2200" id="artboard" style="fill:white;opacity:1" width="3300" x="0" y="0"/>
  <line style="fill:none;stroke:black;opacity:1;stroke-width:0.5;" x1="263" x2="3036" y1="292" y2="292"/>
  <text style="stroke:none;fill:black;font-family:sans-serif;font-size:13;font-weight:bold;" transform="matrix(1 0 0 1 263 322)">Weight/Scale Variations</text>
  <text style="stroke:none;fill:black;font-family:sans-serif;font-size:13;text-anchor:middle;" transform="matrix(1 0 0 1 559.711 322)">Ultralight</text>
  <text style="stroke:none;fill:black;font-family:sans-serif;font-size:13;text-anchor:middle;" transform="matrix(1 0 0 1 856.422 322)">Thin</text>
  <text style="stroke:none;fill:black;font-family:sans-serif;font-size:13;text-anchor:middle;" transform="matrix(1 0 0 1 1153.13 322)">Light</text>
  <text style="stroke:none;fill:black;font-family:sans-serif;font-size:13;text-anchor:middle;" transform="matrix(1 0 0 1 1449.84 322)">Regular</text>
  <text style="stroke:none;fill:black;font-family:sans-serif;font-size:13;text-anchor:middle;" transform="matrix(1 0 0 1 1746.56 322)">Medium</text>
  <text style="stroke:none;fill:black;font-family:sans-serif;font-size:13;text-anchor:middle;" transform="matrix(1 0 0 1 2043.27 322)">Semibold</text>
  <text style="stroke:none;fill:black;font-family:sans-serif;font-size:13;text-anchor:middle;" transform="matrix(1 0 0 1 2339.98 322)">Bold</text>
  <text style="stroke:none;fill:black;font-family:sans-serif;font-size:13;text-anchor:middle;" transform="matrix(1 0 0 1 2636.69 322)">Heavy</text>
  <text style="stroke:none;fill:black;font-family:sans-serif;font-size:13;text-anchor:middle;" transform="matrix(1 0 0 1 2933.4 322)">Black</text>
  <line style="fill:none;stroke:black;opacity:1;stroke-width:0.5;" x1="263" x2="3036" y1="1903" y2="1903"/>
  <g transform="matrix(0.2 0 0 0.2 263 1933)">
   <path d="m46.2402 4.15039c21.7773 0 39.4531-17.627 39.4531-39.4043s-17.6758-39.4043-39.4531-39.4043c-21.7285 0-39.4043 17.627-39.4043 39.4043s17.6758 39.4043 39.4043 39.4043Zm0-7.42188c-17.6758 0-31.9336-14.3066-31.9336-31.9824s14.2578-31.9824 31.9336-31.9824 31.9824 14.3066 31.9824 31.9824-14.3066 31.9824-31.9824 31.9824Zm3.61328-17.7734v-28.4668c0-2.24609-1.46484-3.75977-3.71094-3.75977-2.14844 0-3.61328 1.51367-3.61328 3.75977v28.4668c0 2.19727 1.46484 3.71094 3.61328 3.71094 2.24609 0 3.71094-1.51367 3.71094-3.71094Zm-17.8223-10.5957h28.418c2.19727 0 3.71094-1.46484 3.71094-3.61328 0-2.19727-1.51367-3.71094-3.71094-3.71094h-28.418c-2.24609 0-3.75977 1.51367-3.75977 3.71094 0 2.14844 1.51367 3.61328 3.75977 3.61328Z"/>
  </g>
  <g transform="matrix(0.2 0 0 0.2 281.506 1933)">
   <path d="m58.5449 14.5508c27.4902 0 49.8047-22.3145 49.8047-49.8047s-22.3145-49.8047-49.8047-49.8047-49.8047 22.3145-49.8047 49.8047 22.3145 49.8047 49.8047 49.8047Zm0-8.30078c-22.9492 0-41.5039-18.5547-41.5039-41.5039s18.5547-41.5039 41.5039-41.5039 41.5039 18.5547 41.5039 41.5039-18.5547 41.5039-41.5039 41.5039Zm4.05273-23.0957v-36.9141c0-2.49023-1.70898-4.19922-4.15039-4.19922-2.39258 0-4.05273 1.70898-4.05273 4.19922v36.9141c0 2.44141 1.66016 4.15039 4.05273 4.15039 2.44141 0 4.15039-1.66016 4.15039-4.15039Zm-22.5586-14.4043h36.9629c2.44141 0 4.15039-1.61133 4.15039-4.00391 0-2.44141-1.70898-4.15039-4.15039-4.15039h-36.9629c-2.49023 0-4.15039 1.70898-4.15039 4.15039 0 2.39258 1.66016 4.00391 4.15039 4.00391Z"/>
  </g>
  <g transform="matrix(0.2 0 0 0.2 304.924 1933)">
   <path d="m74.8535 28.3203c35.1074 0 63.623-28.4668 63.623-63.5742s-28.5156-63.623-63.623-63.623-63.5742 28.5156-63.5742 63.623 28.4668 63.5742 63.5742 63.5742Zm0-9.08203c-30.127 0-54.4922-24.3652-54.4922-54.4922s24.3652-54.4922 54.4922-54.4922 54.4922 24.3652 54.4922 54.4922-24.3652 54.4922-54.4922 54.4922Zm4.44336-30.3223v-48.4863c0-2.73438-1.85547-4.63867-4.54102-4.63867-2.58789 0-4.44336 1.9043-4.44336 4.63867v48.4863c0 2.68555 1.85547 4.58984 4.44336 4.58984 2.68555 0 4.54102-1.85547 4.54102-4.58984Zm-28.7109-19.7754h48.4863c2.68555 0 4.58984-1.80664 4.58984-4.39453 0-2.73438-1.85547-4.58984-4.58984-4.58984h-48.4863c-2.73438 0-4.58984 1.85547-4.58984 4.58984 0 2.58789 1.85547 4.39453 4.58984 4.39453Z"/>
  </g>
  <text style="stroke:none;fill:black;font-family:sans-serif;font-size:13;font-weight:bold;" transform="matrix(1 0 0 1 263 1953)">Design Variations</text>
  <text style="stroke:none;fill:black;font-family:sans-serif;font-size:13;" transform="matrix(1 0 0 1 263 1971)">Symbols are supported in up to nine weights and three scales.</text>
  <text style="stroke:none;fill:black;font-family:sans-serif;font-size:13;" transform="matrix(1 0 0 1 263 1989)">For optimal layout with text and other symbols, vertically align</text>
  <text style="stroke:none;fill:black;font-family:sans-serif;font-size:13;" transform="matrix(1 0 0 1 263 2007)">symbols with the adjacent text.</text>
  <line style="fill:none;stroke:#00AEEF;stroke-width:0.5;opacity:1.0;" x1="776" x2="776" y1="1919" y2="1933"/>
  <g transform="matrix(0.2 0 0 0.2 776 1933)">
   <path d="m16.5527 0.78125c2.58789 0 3.85742-0.976562 4.78516-3.71094l20.5566-57.5195h0.244141l20.6055 57.5195c0.927734 2.73438 2.19727 3.71094 4.73633 3.71094 2.58789 0 4.24805-1.5625 4.24805-4.00391 0-0.830078-0.146484-1.61133-0.537109-2.63672l-22.9004-60.9863c-1.12305-2.97852-3.125-4.49219-6.25-4.49219-3.02734 0-5.07812 1.46484-6.15234 4.44336l-22.9004 61.084c-0.390625 1.02539-0.537109 1.80664-0.537109 2.63672 0 2.44141 1.5625 3.95508 4.10156 3.95508Zm10.2051-20.9473h30.6641c2.00195 0 3.66211-1.66016 3.66211-3.66211 0-2.05078-1.66016-3.66211-3.66211-3.66211h-30.6641c-2.00195 0-3.66211 1.61133-3.66211 3.66211 0 2.00195 1.66016 3.66211 3.66211 3.66211Z"/>
  </g>
  <line style="fill:none;stroke:#00AEEF;stroke-width:0.5;opacity:1.0;" x1="792.836" x2="792.836" y1="1919" y2="1933"/>
  <text style="stroke:none;fill:black;font-family:sans-serif;font-size:13;font-weight:bold;" transform="matrix(1 0 0 1 776 1953)">Margins</text>
  <text style="stroke:none;fill:black;font-family:sans-serif;font-size:13;" transform="matrix(1 0 0 1 776 1971)">Leading and trailing margins on the left and right side of each symbol</text>
  <text style="stroke:none;fill:black;font-family:sans-serif;font-size:13;" transform="matrix(1 0 0 1 776 1989)">can be adjusted by modifying the x-location of the margin guidelines.</text>
  <text style="stroke:none;fill:black;font-family:sans-serif;font-size:13;" transform="matrix(1 0 0 1 776 2007)">Modifications are automatically applied proportionally to all</text>
  <text style="stroke:none;fill:black;font-family:sans-serif;font-size:13;" transform="matrix(1 0 0 1 776 2025)">scales and weights.</text>
  <g transform="matrix(0.2 0 0 0.2 1289 1933)">
   <path d="m14.209 13.1348 7.86133 7.86133c4.29688 4.39453 9.32617 4.10156 13.8672-1.02539l60.6934-68.2129-4.88281-4.88281-60.2539 67.6758c-1.80664 1.95312-3.4668 2.44141-5.81055 0.0976562l-5.17578-5.12695c-2.29492-2.29492-1.80664-3.95508 0.195312-5.81055l67.4805-62.1582-4.88281-4.83398-68.0664 62.5977c-4.98047 4.58984-5.32227 9.47266-1.02539 13.8184Zm44.873-97.4609c-2.05078 2.00195-2.24609 4.88281-1.07422 6.78711 1.12305 1.80664 3.4668 3.02734 6.5918 2.24609 5.85938-1.66016 12.5977-2.39258 18.8965 0.927734l-2.68555 7.12891c-1.61133 4.00391-0.732422 6.88477 1.70898 9.42383l10.2539 10.3027c2.34375 2.39258 4.54102 2.44141 7.08008 1.95312l4.44336-0.732422 2.58789 2.53906-0.195312 2.24609c-0.0976562 2.29492 0.537109 4.29688 2.7832 6.49414l3.36914 3.32031c2.29492 2.29492 5.51758 2.49023 7.8125 0.195312l12.9883-13.0371c2.29492-2.34375 2.14844-5.37109-0.195312-7.66602l-3.41797-3.41797c-2.19727-2.19727-4.05273-3.02734-6.34766-2.88086l-2.34375 0.244141-2.44141-2.44141 1.02539-4.6875c0.634766-2.73438-0.244141-4.98047-2.88086-7.61719l-11.2793-11.1816c-12.9395-12.8418-35.5957-11.0352-46.6797-0.146484Zm7.08008 2.05078c8.78906-6.39648 25.9766-5.66406 33.6914 1.95312l12.3047 12.207c1.02539 1.02539 1.2207 1.80664 0.927734 3.32031l-1.46484 6.64062 6.73828 6.68945 4.39453-0.244141c1.12305-0.0488281 1.51367 0.0488281 2.34375 0.878906l2.53906 2.49023-10.8398 10.8398-2.49023-2.49023c-0.830078-0.878906-0.976562-1.2207-0.927734-2.39258l0.292969-4.3457-6.68945-6.73828-6.83594 1.17188c-1.41602 0.292969-2.05078 0.195312-3.17383-0.878906l-8.93555-8.88672c-1.07422-1.02539-1.17188-1.70898-0.488281-3.36914l4.58984-11.4746c-6.10352-6.34766-17.041-7.51953-25.5859-4.58984-0.683594 0.244141-0.927734-0.390625-0.390625-0.78125Z"/>
  </g>
  <text style="stroke:none;fill:black;font-family:sans-serif;font-size:13;font-weight:bold;" transform="matrix(1 0 0 1 1289 1953)">Exporting</text>
  <text style="stroke:none;fill:black;font-family:sans-serif;font-size:13;" transform="matrix(1 0 0 1 1289 1971)">Symbols should be outlined when exporting to ensure the</text>
  <text style="stroke:none;fill:black;font-family:sans-serif;font-size:13;" transform="matrix(1 0 0 1 1289 1989)">design is preserved when submitting to Xcode.</text>
  <text id="template-version" style="stroke:none;fill:black;font-family:sans-serif;font-size:13;text-anchor:end;" transform="matrix(1 0 0 1 3036 1933)">Template v.7.0</text>
  <text style="stroke:none;fill:black;font-family:sans-serif;font-size:13;text-anchor:end;" transform="matrix(1 0 0 1 3036 1951)">Requires Xcode 26 or greater</text>
  <text id="descriptive-name" style="stroke:none;fill:black;font-family:sans-serif;font-size:13;text-anchor:end;" transform="matrix(1 0 0 1 3036 1969)">Generated from accessibility (recreation)</text>
  <text style="stroke:none;fill:black;font-family:sans-serif;font-size:13;text-anchor:end;" transform="matrix(1 0 0 1 3036 1987)">Typeset at 100.0 points</text>
  <text style="stroke:none;fill:black;font-family:sans-serif;font-size:13;" transform="matrix(1 0 0 1 263 726)">Small</text>
  <text style="stroke:none;fill:black;font-family:sans-serif;font-size:13;" transform="matrix(1 0 0 1 263 1156)">Medium</text>
  <text style="stroke:none;fill:black;font-family:sans-serif;font-size:13;" transform="matrix(1 0 0 1 263 1586)">Large</text>
 </g>
 <g id="Guides">
  <g id="H-reference" style="fill:#27AAE1;stroke:none;" transform="matrix(1 0 0 1 339 696)">
   <path d="M0.993654 0L3.63775 0L29.3281-67.1323L30.0303-67.1323L30.0303-70.459L28.1226-70.459ZM11.6885-24.4799L46.9815-24.4799L46.2315-26.7285L12.4385-26.7285ZM55.1196 0L57.7637 0L30.6382-70.459L29.4326-70.459L29.4326-67.1323Z"/>
  </g>
  <line id="Baseline-S" style="fill:none;stroke:#27AAE1;opacity:1;stroke-width:0.5;" x1="263" x2="3036" y1="696" y2="696"/>
  <line id="Capline-S" style="fill:none;stroke:#27AAE1;opacity:1;stroke-width:0.5;" x1="263" x2="3036" y1="625.541" y2="625.541"/>
  <g id="H-reference" style="fill:#27AAE1;stroke:none;" transform="matrix(1 0 0 1 339 1126)">
   <path d="M0.993654 0L3.63775 0L29.3281-67.1323L30.0303-67.1323L30.0303-70.459L28.1226-70.459ZM11.6885-24.4799L46.9815-24.4799L46.2315-26.7285L12.4385-26.7285ZM55.1196 0L57.7637 0L30.6382-70.459L29.4326-70.459L29.4326-67.1323Z"/>
  </g>
  <line id="Baseline-M" style="fill:none;stroke:#27AAE1;opacity:1;stroke-width:0.5;" x1="263" x2="3036" y1="1126" y2="1126"/>
  <line id="Capline-M" style="fill:none;stroke:#27AAE1;opacity:1;stroke-width:0.5;" x1="263" x2="3036" y1="1055.54" y2="1055.54"/>
  <g id="H-reference" style="fill:#27AAE1;stroke:none;" transform="matrix(1 0 0 1 339 1556)">
   <path d="M0.993654 0L3.63775 0L29.3281-67.1323L30.0303-67.1323L30.0303-70.459L28.1226-70.459ZM11.6885-24.4799L46.9815-24.4799L46.2315-26.7285L12.4385-26.7285ZM55.1196 0L57.7637 0L30.6382-70.459L29.4326-70.459L29.4326-67.1323Z"/>
  </g>
  <line id="Baseline-L" style="fill:none;stroke:#27AAE1;opacity:1;stroke-width:0.5;" x1="263" x2="3036" y1="1556" y2="1556"/>
  <line id="Capline-L" style="fill:none;stroke:#27AAE1;opacity:1;stroke-width:0.5;" x1="263" x2="3036" y1="1485.54" y2="1485.54"/>
  <line id="right-margin-Black-S" style="fill:none;stroke:#00AEEF;stroke-width:0.5;opacity:1.0;" x1="2982.23" x2="2982.23" y1="600.785" y2="720.121"/>
  <line id="left-margin-Black-S" style="fill:none;stroke:#00AEEF;stroke-width:0.5;opacity:1.0;" x1="2884.57" x2="2884.57" y1="600.785" y2="720.121"/>
  <line id="right-margin-Regular-S" style="fill:none;stroke:#00AEEF;stroke-width:0.5;opacity:1.0;" x1="1496.11" x2="1496.11" y1="600.785" y2="720.121"/>
  <line id="left-margin-Regular-S" style="fill:none;stroke:#00AEEF;stroke-width:0.5;opacity:1.0;" x1="1403.58" x2="1403.58" y1="600.785" y2="720.121"/>
  <line id="right-margin-Ultralight-S" style="fill:none;stroke:#00AEEF;stroke-width:0.5;opacity:1.0;" x1="603.773" x2="603.773" y1="600.785" y2="720.121"/>
  <line id="left-margin-Ultralight-S" style="fill:none;stroke:#00AEEF;stroke-width:0.5;opacity:1.0;" x1="515.649" x2="515.649" y1="600.785" y2="720.121"/>
 </g>
 <g id="Symbols">
  <g id="Black-S" transform="matrix(1 0 0 1 2884.57 696)">
   <path class="SFSymbolsPreviewWireframe" d="M48.8281 6.73828C72.0214 6.73828 90.8203-12.0605 90.8203-35.2539C90.8203-58.4472 72.0214-77.2461 48.8281-77.2461C25.6348-77.2461 6.83593-58.4472 6.83593-35.2539C6.83593-12.0605 25.6348 6.73828 48.8281 6.73828ZM48.8281-7.42187C33.4472-7.42187 20.9961-19.873 20.9961-35.2539C20.9961-50.6347 33.4472-63.0859 48.8281-63.0859C64.209-63.0859 76.6601-50.6347 76.6601-35.2539C76.6601-19.873 64.209-7.42187 48.8281-7.42187ZM48.8281-46.875C43.9453-46.875 36.9629-47.7051 33.6426-48.2422C33.3496-48.291 33.0078-48.3398 32.7148-48.3398C31.8359-48.3398 30.957-47.6562 30.957-46.3867C30.957-45.459 31.4941-44.6777 32.4219-44.4336C33.4961-44.1406 41.3574-43.2129 42.334-43.0176C43.3105-42.8222 43.8965-41.9922 43.9453-40.8203C44.0429-39.0137 43.9453-33.3008 43.5058-30.7129C43.0664-28.125 40.0879-15.625 39.9414-15.0879C39.5996-13.7695 40.3808-12.5976 41.748-12.5976C42.7246-12.5976 43.3594-13.1348 43.7011-14.4043C44.3847-16.9434 46.4844-25.5371 47.1679-27.6367C47.6562-29.1504 47.998-29.6875 48.8281-29.6875C49.6582-29.6875 50.0488-29.1504 50.5371-27.6367C51.2207-25.5859 53.3691-16.9434 53.9551-14.4043C54.248-13.1348 54.9316-12.5976 55.9082-12.5976C57.2754-12.5976 58.0566-13.7695 57.7148-15.0879C57.5683-15.625 54.541-28.125 54.1504-30.7129C53.7597-33.3008 53.7597-39.0137 53.7597-40.8203C53.7597-41.9922 54.3457-42.8222 55.3222-43.0176C56.2988-43.2129 64.1601-44.0918 65.2343-44.4336C66.1621-44.7265 66.6992-45.459 66.6992-46.3867C66.6992-47.6562 65.7715-48.3398 64.9414-48.3398C64.6484-48.3398 64.3066-48.291 64.0136-48.2422C60.6933-47.7051 53.7597-46.875 48.8281-46.875ZM48.8281-49.1699C51.3183-49.1699 53.3203-51.2207 53.3203-53.6621C53.3203-56.1035 51.3183-58.1054 48.8281-58.1054C46.3379-58.1054 44.3359-56.1035 44.3359-53.6621C44.3359-51.2207 46.3379-49.1699 48.8281-49.1699Z"/>
  </g>
  <g id="Regular-S" transform="matrix(1 0 0 1 1403.58 696)">
   <path class="SFSymbolsPreviewWireframe" d="M46.2066 4.12137C67.9681 4.12137 85.631-13.4928 85.631-35.2543C85.631-57.0158 67.9681-74.6299 46.2066-74.6299C24.4939-74.6299 6.83096-57.0158 6.83096-35.2543C6.83096-13.4928 24.4939 4.12137 46.2066 4.12137ZM46.2066-3.2951C28.5437-3.2951 14.2962-17.5913 14.2962-35.2543C14.2962-52.9172 28.5437-67.2134 46.2066-67.2134C63.8695-67.2134 78.1657-52.9172 78.1657-35.2543C78.1657-17.5913 63.8695-3.2951 46.2066-3.2951ZM46.1578-48.0867C40.7906-48.0867 33.1302-48.965 29.4707-49.5505C29.1292-49.5993 28.7876-49.6969 28.4461-49.6969C27.4702-49.6969 26.4944-48.9162 26.4944-47.55C26.4944-46.5253 27.1287-45.6471 28.1045-45.4031C29.3244-45.0128 37.9606-43.9881 39.0341-43.793C40.1075-43.5978 40.7418-42.6707 40.7906-41.3533C40.7906-39.4016 40.7906-33.1074 40.3027-30.2286C39.8636-27.3986 36.5457-13.6391 36.3993-13.0536C35.9601-11.5898 36.8872-10.2724 38.351-10.2724C39.4244-10.2724 40.1563-10.858 40.5467-12.2729C41.181-15.0541 43.5718-24.5687 44.3525-26.8619C44.7916-28.5209 45.2307-29.1064 46.1578-29.1064C47.0849-29.1064 47.4752-28.5209 48.0119-26.8619C48.695-24.5687 51.1834-15.0541 51.8177-12.2729C52.2081-10.858 52.94-10.2724 54.0134-10.2724C55.4772-10.2724 56.3555-11.5898 55.9651-13.0536C55.8675-13.6391 52.5008-27.3986 52.0617-30.2286C51.6226-33.1074 51.6226-39.4016 51.6226-41.3533C51.6226-42.6707 52.2569-43.549 53.3303-43.793C54.4037-44.0369 63.04-45.0128 64.2599-45.4031C65.2357-45.6471 65.87-46.5253 65.87-47.55C65.87-48.9162 64.8454-49.6969 63.9183-49.6969C63.5768-49.6969 63.2352-49.5993 62.8937-49.5505C59.2342-48.965 51.6226-48.0867 46.1578-48.0867ZM46.1578-50.5751C48.8902-50.5751 51.1346-52.8196 51.1346-55.5032C51.1346-58.2356 48.8902-60.4312 46.1578-60.4312C43.4254-60.4312 41.2297-58.2356 41.2297-55.5032C41.2297-52.8196 43.4254-50.5751 46.1578-50.5751Z"/>
  </g>
  <g id="Ultralight-S" transform="matrix(1 0 0 1 515.649 696)">
   <path class="SFSymbolsPreviewWireframe" d="M44.0414 1.94466C64.5931 1.94466 81.2883-14.7017 81.2883-35.2534C81.2883-55.8051 64.5931-72.4515 44.0414-72.4515C23.5385-72.4515 6.8433-55.8051 6.8433-35.2534C6.8433-14.7017 23.5385 1.94466 44.0414 1.94466ZM44.0414-0.300898C24.7101-0.300898 9.04003-15.9221 9.04003-35.2534C9.04003-54.5847 24.7101-70.206 44.0414-70.206C63.4215-70.206 79.0428-54.5847 79.0428-35.2534C79.0428-15.9221 63.4215-0.300898 44.0414-0.300898ZM43.9926-48.6291C38.4763-48.6291 30.4704-49.6055 26.6628-50.1424C26.321-50.1913 25.9793-50.2889 25.5888-50.2889C24.6125-50.2889 23.5873-49.459 23.5873-48.0433C23.5873-46.9694 24.2219-46.0419 25.2471-45.7978C26.5163-45.5049 35.4985-44.3821 36.6213-44.1868C37.7441-43.9916 38.4275-43.0152 38.4763-41.6972C38.5251-39.6469 38.4763-33.1055 37.9393-30.1277C37.4512-27.1499 34.034-12.9443 33.8876-12.3585C33.4971-10.7964 34.3757-9.42957 35.9379-9.42957C37.0118-9.42957 37.7929-10.0642 38.1834-11.5287C38.9645-14.36 41.3565-24.2209 42.1376-26.6129C42.6745-28.2727 43.0162-28.9561 43.9926-28.9561C44.9689-28.9561 45.3594-28.3215 45.9452-26.6129C46.6775-24.2698 49.1183-14.4088 49.8505-11.5287C50.1923-10.0642 51.0221-9.42957 52.0961-9.42957C53.6582-9.42957 54.5369-10.7964 54.1464-12.3585C53.9999-12.9443 50.534-27.1499 50.0946-30.1277C49.6065-33.1055 49.6065-39.6469 49.6065-41.6972C49.6065-43.0152 50.2899-43.9428 51.4127-44.1868C52.5354-44.4309 61.4688-45.4073 62.7381-45.7978C63.7632-46.1395 64.3978-46.9694 64.3978-48.0433C64.3978-49.459 63.3239-50.2889 62.3964-50.2889C62.0058-50.2889 61.6641-50.1913 61.3224-50.1424C57.5635-49.6055 49.6065-48.6291 43.9926-48.6291ZM43.9926-51.2164C46.8239-51.2164 49.1183-53.5108 49.1183-56.3421C49.1183-59.1735 46.8239-61.419 43.9926-61.419C41.21-61.419 38.9157-59.1735 38.9157-56.3421C38.9157-53.5108 41.21-51.2164 43.9926-51.2164Z"/>
  </g>
 </g>
</svg>
