<?xml version="1.0" encoding="UTF-8"?>
<!--Generator: Apple Native CoreSVG 341-->
<!DOCTYPE svg
PUBLIC "-//W3C//DTD SVG 1.1//EN"
       "http://www.w3.org/Graphics/SVG/1.1/DTD/svg11.dtd">
<svg version="1.1" xmlns="http://www.w3.org/2000/svg" xmlns:xlink="http://www.w3.org/1999/xlink" viewBox="0 0 3300 2200">
 <!--glyph: "", point size: 100.0, font version: "21.1d1e1", template writer version: "138.0.0"-->
 <style>.SFSymbolsPreviewWireframe {fill:none;opacity:1.0;stroke:black;stroke-width:0.5}
</style>
 <g id="Notes">
  <rect height="2200" id="artboard" style="fill:white;opacity:1" width="3300" x="0" y="0"/>
  <line style="fill:none;stroke:black;opacity:1;stroke-width:0.5;" x1="263" x2="3036" y1="292" y2="292"/>
  <text style="stroke:none;fill:black;font-family:sans-serif;font-size:13;font-weight:bold;" transform="matrix(1 0 0 1 263 322)">Weight/Scale Variations</text>
  <text style="stroke:none;fill:black;font-family:sans-serif;font-size:13;text-anchor:middle;" transform="matrix(1 0 0 1 559.711 322)">Ultralight</text>
  <text style="stroke:none;fill:black;font-family:sans-serif;font-size:13;text-anchor:middle;" transform="matrix(1 0 0 1 856.422 322)">Thin</text>
  <text style="stroke:none;fill:black;font-family:sans-serif;font-size:13;text-anchor:middle;" transform="matrix(1 0 0 1 1153.13 322)">Light</text>
  <text style="stroke:none;fill:black;font-family:sans-serif;font-size:13;text-anchor:middle;" transform="matrix(1 0 0 1 1449.84 322)">Regular</text>
  <text style="stroke:none;fill:black;font-family:sans-serif;font-size:13;text-anchor:middle;" transform="matrix(1 0 0 1 1746.56 322)">Medium</text>
  <text style="stroke:none;fill:black;font-family:sans-serif;font-size:13;text-anchor:middle;" transform="matrix(1 0 0 1 2043.27 322)">Semibold</text>
  <text style="stroke:none;fill:black;font-family:sans-serif;font-size:13;text-anchor:middle;" transform="matrix(1 0 0 1 2339.98 322)">Bold</text>
  <text style="stroke:none;fill:black;font-family:sans-serif;font-size:13;text-anchor:middle;" transform="matrix(1 0 0 1 2636.69 322)">Heavy</text>
  <text style="stroke:none;fill:black;font-family:sans-serif;font-size:13;text-anchor:middle;" transform="matrix(1 0 0 1 2933.4 322)">Black</text>
  <line style="fill:none;stroke:black;opacity:1;stroke-width:0.5;" x1="263" x2="3036" y1="1903" y2="1903"/>
  <g transform="matrix(0.2 0 0 0.2 263 1933)">
   <path d="m46.2402 4.15039c21.7773 0 39.4531-17.627 39.4531-39.4043s-17.6758-39.4043-39.4531-39.4043c-21.7285 0-39.4043 17.627-39.4043 39.4043s17.6758 39.4043 39.4043 39.4043Zm0-7.42188c-17.6758 0-31.9336-14.3066-31.9336-31.9824s14.2578-31.9824 31.9336-31.9824 31.9824 14.3066 31.9824 31.9824-14.3066 31.9824-31.9824 31.9824Zm3.61328-17.7734v-28.4668c0-2.24609-1.46484-3.75977-3.71094-3.75977-2.14844 0-3.61328 1.51367-3.61328 3.75977v28.4668c0 2.19727 1.46484 3.71094 3.61328 3.71094 2.24609 0 3.71094-1.51367 3.71094-3.71094Zm-17.8223-10.5957h28.418c2.19727 0 3.71094-1.46484 3.71094-3.61328 0-2.19727-1.51367-3.71094-3.71094-3.71094h-28.418c-2.24609 0-3.75977 1.51367-3.75977 3.71094 0 2.14844 1.51367 3.61328 3.75977 3.61328Z"/>
  </g>
  <g transform="matrix(0.2 0 0 0.2 281.506 1933)">
   <path d="m58.5449 14.5508c27.4902 0 49.8047-22.3145 49.8047-49.8047s-22.3145-49.8047-49.8047-49.8047-49.8047 22.3145-49.8047 49.8047 22.3145 49.8047 49.8047 49.8047Zm0-8.30078c-22.9492 0-41.5039-18.5547-41.5039-41.5039s18.5547-41.5039 41.5039-41.5039 41.5039 18.5547 41.5039 41.5039-18.5547 41.5039-41.5039 41.5039Zm4.05273-23.0957v-36.9141c0-2.49023-1.70898-4.19922-4.15039-4.19922-2.39258 0-4.05273 1.70898-4.05273 4.19922v36.9141c0 2.44141 1.66016 4.15039 4.05273 4.15039 2.44141 0 4.15039-1.66016 4.15039-4.15039Zm-22.5586-14.4043h36.9629c2.44141 0 4.15039-1.61133 4.15039-4.00391 0-2.44141-1.70898-4.15039-4.15039-4.15039h-36.9629c-2.49023 0-4.15039 1.70898-4.15039 4.15039 0 2.39258 1.66016 4.00391 4.15039 4.00391Z"/>
  </g>
  <g transform="matrix(0.2 0 0 0.2 304.924 1933)">
   <path d="m74.8535 28.3203c35.1074 0 63.623-28.4668 63.623-63.5742s-28.5156-63.623-63.623-63.623-63.5742 28.5156-63.5742 63.623 28.4668 63.5742 63.5742 63.5742Zm0-9.08203c-30.127 0-54.4922-24.3652-54.4922-54.4922s24.3652-54.4922 54.4922-54.4922 54.4922 24.3652 54.4922 54.4922-24.3652 54.4922-54.4922 54.4922Zm4.44336-30.3223v-48.4863c0-2.73438-1.85547-4.63867-4.54102-4.63867-2.58789 0-4.44336 1.9043-4.44336 4.63867v48.4863c0 2.68555 1.85547 4.58984 4.44336 4.58984 2.68555 0 4.54102-1.85547 4.54102-4.58984Zm-28.7109-19.7754h48.4863c2.68555 0 4.58984-1.80664 4.58984-4.39453 0-2.73438-1.85547-4.58984-4.58984-4.58984h-48.4863c-2.73438 0-4.58984 1.85547-4.58984 4.58984 0 2.58789 1.85547 4.39453 4.58984 4.39453Z"/>
  </g>
  <text style="stroke:none;fill:black;font-family:sans-serif;font-size:13;font-weight:bold;" transform="matrix(1 0 0 1 263 1953)">Design Variations</text>
  <text style="stroke:none;fill:black;font-family:sans-serif;font-size:13;" transform="matrix(1 0 0 1 263 1971)">Symbols are supported in up to nine weights and three scales.</text>
  <text style="stroke:none;fill:black;font-family:sans-serif;font-size:13;" transform="matrix(1 0 0 1 263 1989)">For optimal layout with text and other symbols, vertically align</text>
  <text style="stroke:none;fill:black;font-family:sans-serif;font-size:13;" transform="matrix(1 0 0 1 263 2007)">symbols with the adjacent text.</text>
  <line style="fill:none;stroke:#00AEEF;stroke-width:0.5;opacity:1.0;" x1="776" x2="776" y1="1919" y2="1933"/>
  <g transform="matrix(0.2 0 0 0.2 776 1933)">
   <path d="m16.5527 0.78125c2.58789 0 3.85742-0.976562 4.78516-3.71094l20.5566-57.5195h0.244141l20.6055 57.5195c0.927734 2.73438 2.19727 3.71094 4.73633 3.71094 2.58789 0 4.24805-1.5625 4.24805-4.00391 0-0.830078-0.146484-1.61133-0.537109-2.63672l-22.9004-60.9863c-1.12305-2.97852-3.125-4.49219-6.25-4.49219-3.02734 0-5.07812 1.46484-6.15234 4.44336l-22.9004 61.084c-0.390625 1.02539-0.537109 1.80664-0.537109 2.63672 0 2.44141 1.5625 3.95508 4.10156 3.95508Zm10.2051-20.9473h30.6641c2.00195 0 3.66211-1.66016 3.66211-3.66211 0-2.05078-1.66016-3.66211-3.66211-3.66211h-30.6641c-2.00195 0-3.66211 1.61133-3.66211 3.66211 0 2.00195 1.66016 3.66211 3.66211 3.66211Z"/>
  </g>
  <line style="fill:none;stroke:#00AEEF;stroke-width:0.5;opacity:1.0;" x1="792.836" x2="792.836" y1="1919" y2="1933"/>
  <text style="stroke:none;fill:black;font-family:sans-serif;font-size:13;font-weight:bold;" transform="matrix(1 0 0 1 776 1953)">Margins</text>
  <text style="stroke:none;fill:black;font-family:sans-serif;font-size:13;" transform="matrix(1 0 0 1 776 1971)">Leading and trailing margins on the left and right side of each symbol</text>
  <text style="stroke:none;fill:black;font-family:sans-serif;font-size:13;" transform="matrix(1 0 0 1 776 1989)">can be adjusted by modifying the x-location of the margin guidelines.</text>
  <text style="stroke:none;fill:black;font-family:sans-serif;font-size:13;" transform="matrix(1 0 0 1 776 2007)">Modifications are automatically applied proportionally to all</text>
  <text style="stroke:none;fill:black;font-family:sans-serif;font-size:13;" transform="matrix(1 0 0 1 776 2025)">scales and weights.</text>
  <g transform="matrix(0.2 0 0 0.2 1289 1933)">
   <path d="m14.209 13.1348 7.86133 7.86133c4.29688 4.39453 9.32617 4.10156 13.8672-1.02539l60.6934-68.2129-4.88281-4.88281-60.2539 67.6758c-1.80664 1.95312-3.4668 2.44141-5.81055 0.0976562l-5.17578-5.12695c-2.29492-2.29492-1.80664-3.95508 0.195312-5.81055l67.4805-62.1582-4.88281-4.83398-68.0664 62.5977c-4.98047 4.58984-5.32227 9.47266-1.02539 13.8184Zm44.873-97.4609c-2.05078 2.00195-2.24609 4.88281-1.07422 6.78711 1.12305 1.80664 3.4668 3.02734 6.5918 2.24609 5.85938-1.66016 12.5977-2.39258 18.8965 0.927734l-2.68555 7.12891c-1.61133 4.00391-0.732422 6.88477 1.70898 9.42383l10.2539 10.3027c2.34375 2.39258 4.54102 2.44141 7.08008 1.95312l4.44336-0.732422 2.58789 2.53906-0.195312 2.24609c-0.0976562 2.29492 0.537109 4.29688 2.7832 6.49414l3.36914 3.32031c2.29492 2.29492 5.51758 2.49023 7.8125 0.195312l12.9883-13.0371c2.29492-2.34375 2.14844-5.37109-0.195312-7.66602l-3.41797-3.41797c-2.19727-2.19727-4.05273-3.02734-6.34766-2.88086l-2.34375 0.244141-2.44141-2.44141 1.02539-4.6875c0.634766-2.73438-0.244141-4.98047-2.88086-7.61719l-11.2793-11.1816c-12.9395-12.8418-35.5957-11.0352-46.6797-0.146484Zm7.08008 2.05078c8.78906-6.39648 25.9766-5.66406 33.6914 1.95312l12.3047 12.207c1.02539 1.02539 1.2207 1.80664 0.927734 3.32031l-1.46484 6.64062 6.73828 6.68945 4.39453-0.244141c1.12305-0.0488281 1.51367 0.0488281 2.34375 0.878906l2.53906 2.49023-10.8398 10.8398-2.49023-2.49023c-0.830078-0.878906-0.976562-1.2207-0.927734-2.39258l0.292969-4.3457-6.68945-6.73828-6.83594 1.17188c-1.41602 0.292969-2.05078 0.195312-3.17383-0.878906l-8.93555-8.88672c-1.07422-1.02539-1.17188-1.70898-0.488281-3.36914l4.58984-11.4746c-6.10352-6.34766-17.041-7.51953-25.5859-4.58984-0.683594 0.244141-0.927734-0.390625-0.390625-0.78125Z"/>
  </g>
  <text style="stroke:none;fill:black;font-family:sans-serif;font-size:13;font-weight:bold;" transform="matrix(1 0 0 1 1289 1953)">Exporting</text>
  <text style="stroke:none;fill:black;font-family:sans-serif;font-size:13;" transform="matrix(1 0 0 1 1289 1971)">Symbols should be outlined when exporting to ensure the</text>
  <text style="stroke:none;fill:black;font-family:sans-serif;font-size:13;" transform="matrix(1 0 0 1 1289 1989)">design is preserved when submitting to Xcode.</text>
  <text id="template-version" style="stroke:none;fill:black;font-family:sans-serif;font-size:13;text-anchor:end;" transform="matrix(1 0 0 1 3036 1933)">Template v.7.0</text>
  <text style="stroke:none;fill:black;font-family:sans-serif;font-size:13;text-anchor:end;" transform="matrix(1 0 0 1 3036 1951)">Requires Xcode 26 or greater</text>
  <text id="descriptive-name" style="stroke:none;fill:black;font-family:sans-serif;font-size:13;text-anchor:end;" transform="matrix(1 0 0 1 3036 1969)">Generated from digitalcrown.horizontal.arrow.clockwise.fill (recreation)</text>
  <text style="stroke:none;fill:black;font-family:sans-serif;font-size:13;text-anchor:end;" transform="matrix(1 0 0 1 3036 1987)">Typeset at 100.0 points</text>
  <text style="stroke:none;fill:black;font-family:sans-serif;font-size:13;" transform="matrix(1 0 0 1 263 726)">Small</text>
  <text style="stroke:none;fill:black;font-family:sans-serif;font-size:13;" transform="matrix(1 0 0 1 263 1156)">Medium</text>
  <text style="stroke:none;fill:black;font-family:sans-serif;font-size:13;" transform="matrix(1 0 0 1 263 1586)">Large</text>
 </g>
 <g id="Guides">
  <g id="H-reference" style="fill:#27AAE1;stroke:none;" transform="matrix(1 0 0 1 339 696)">
   <path d="M0.993654 0L3.63775 0L29.3281-67.1323L30.0303-67.1323L30.0303-70.459L28.1226-70.459ZM11.6885-24.4799L46.9815-24.4799L46.2315-26.7285L12.4385-26.7285ZM55.1196 0L57.7637 0L30.6382-70.459L29.4326-70.459L29.4326-67.1323Z"/>
  </g>
  <line id="Baseline-S" style="fill:none;stroke:#27AAE1;opacity:1;stroke-width:0.5;" x1="263" x2="3036" y1="696" y2="696"/>
  <line id="Capline-S" style="fill:none;stroke:#27AAE1;opacity:1;stroke-width:0.5;" x1="263" x2="3036" y1="625.541" y2="625.541"/>
  <g id="H-reference" style="fill:#27AAE1;stroke:none;" transform="matrix(1 0 0 1 339 1126)">
   <path d="M0.993654 0L3.63775 0L29.3281-67.1323L30.0303-67.1323L30.0303-70.459L28.1226-70.459ZM11.6885-24.4799L46.9815-24.4799L46.2315-26.7285L12.4385-26.7285ZM55.1196 0L57.7637 0L30.6382-70.459L29.4326-70.459L29.4326-67.1323Z"/>
  </g>
  <line id="Baseline-M" style="fill:none;stroke:#27AAE1;opacity:1;stroke-width:0.5;" x1="263" x2="3036" y1="1126" y2="1126"/>
  <line id="Capline-M" style="fill:none;stroke:#27AAE1;opacity:1;stroke-width:0.5;" x1="263" x2="3036" y1="1055.54" y2="1055.54"/>
  <g id="H-reference" style="fill:#27AAE1;stroke:none;" transform="matrix(1 0 0 1 339 1556)">
   <path d="M0.993654 0L3.63775 0L29.3281-67.1323L30.0303-67.1323L30.0303-70.459L28.1226-70.459ZM11.6885-24.4799L46.9815-24.4799L46.2315-26.7285L12.4385-26.7285ZM55.1196 0L57.7637 0L30.6382-70.459L29.4326-70.459L29.4326-67.1323Z"/>
  </g>
  <line id="Baseline-L" style="fill:none;stroke:#27AAE1;opacity:1;stroke-width:0.5;" x1="263" x2="3036" y1="1556" y2="1556"/>
  <line id="Capline-L" style="fill:none;stroke:#27AAE1;opacity:1;stroke-width:0.5;" x1="263" x2="3036" y1="1485.54" y2="1485.54"/>
  <line id="right-margin-Black-S" style="fill:none;stroke:#00AEEF;stroke-width:0.5;opacity:1.0;" x1="2994.87" x2="2994.87" y1="600.785" y2="720.121"/>
  <line id="left-margin-Black-S" style="fill:none;stroke:#00AEEF;stroke-width:0.5;opacity:1.0;" x1="2871.93" x2="2871.93" y1="600.785" y2="720.121"/>
  <line id="right-margin-Regular-S" style="fill:none;stroke:#00AEEF;stroke-width:0.5;opacity:1.0;" x1="1507.07" x2="1507.07" y1="600.785" y2="720.121"/>
  <line id="left-margin-Regular-S" style="fill:none;stroke:#00AEEF;stroke-width:0.5;opacity:1.0;" x1="1392.62" x2="1392.62" y1="600.785" y2="720.121"/>
  <line id="right-margin-Ultralight-S" style="fill:none;stroke:#00AEEF;stroke-width:0.5;opacity:1.0;" x1="611.239" x2="611.239" y1="600.785" y2="720.121"/>
  <line id="left-margin-Ultralight-S" style="fill:none;stroke:#00AEEF;stroke-width:0.5;opacity:1.0;" x1="508.183" x2="508.183" y1="600.785" y2="720.121"/>
 </g>
 <g id="Symbols">
  <g id="Black-S" transform="matrix(1 0 0 1 2871.93 696)">
   <path class="SFSymbolsPreviewWireframe" d="M61.4745-48.4587C86.6093-48.4587 101.021-55.4945 101.021-67.14C101.021-78.7854 86.6093-85.8212 61.4745-85.8212C36.3398-85.8212 21.9285-78.7854 21.9285-67.14C21.9285-55.4945 36.3398-48.4587 61.4745-48.4587ZM61.4745-22.4991C88.2105-22.4991 104.174-31.4273 104.174-50.2056L104.174-54.7667C101.312-51.079 97.0417-48.1191 91.5101-45.887L91.5101-40.2584C91.5101-38.5116 90.0059-37.0074 88.259-37.0074C86.4637-37.0074 85.008-38.4631 85.008-40.2584L85.008-43.8006C82.9701-43.2668 80.7866-42.8301 78.506-42.4419L78.506-38.3175C78.506-36.5222 77.0503-35.0665 75.255-35.0665C73.4596-35.0665 71.9554-36.5222 71.9554-38.3175L71.9554-41.617C69.6263-41.423 67.2487-41.2774 64.7255-41.2289L64.7255-37.5411C64.7255-35.7458 63.2699-34.3386 61.4745-34.3386C59.6792-34.3386 58.2235-35.7458 58.2235-37.5411L58.2235-41.2289C55.7003-41.2774 53.3227-41.423 50.9936-41.617L50.9936-38.3175C50.9936-36.5222 49.4894-35.0665 47.6941-35.0665C45.8987-35.0665 44.443-36.5222 44.443-38.3175L44.443-42.4419C42.1625-42.8301 39.979-43.2668 37.941-43.8006L37.941-40.2584C37.941-38.4631 36.4853-37.0074 34.69-37.0074C32.9432-37.0074 31.439-38.5116 31.439-40.2584L31.439-45.887C25.9074-48.1191 21.6374-51.079 18.7745-54.7667L18.7745-50.2056C18.7745-31.4273 34.7385-22.4991 61.4745-22.4991ZM92.6261-1.58582C92.6261-5.32207 89.4236-9.05831 84.6684-7.3115C78.4089-5.03093 71.7128-3.91491 64.4344-3.91491C56.04-3.91491 48.4219-5.41911 41.4346-8.42752L37.4073 2.92679C45.462 6.32338 54.7299 8.0702 64.4344 8.0702C72.8774 8.0702 81.1747 6.66304 88.6958 3.99429C91.4615 3.02384 92.6261 0.69475 92.6261-1.58582ZM48.5675 11.7094L53.7109-10.4655C54.9725-15.7059 49.4409-17.9865 46.2384-16.3852L30.7111-8.76718C27.3631-7.11741 26.3926-2.79888 28.9643 0.452136L39.4452 13.8929C41.8713 17.0469 47.3544 16.9499 48.5675 11.7094Z"/>
  </g>
  <g id="Regular-S" transform="matrix(1 0 0 1 1392.62 696)">
   <path class="SFSymbolsPreviewWireframe" d="M57.2225-40.478C80.196-40.478 95.5118-47.7472 95.5118-58.3982C95.5118-69.0492 80.196-76.3184 57.2225-76.3184C34.2489-76.3184 18.9331-69.0492 18.9331-58.3982C18.9331-47.7472 34.2489-40.478 57.2225-40.478ZM57.2225-19.7979C81.6732-19.7979 96.5225-26.6394 96.5225-42.8881L96.5225-47.3196C93.6459-44.0154 89.4477-41.3332 84.1222-39.3507L84.1222-34.0641C84.1222-32.6647 82.956-31.5374 81.5566-31.5374C80.1572-31.5374 79.0299-32.6647 79.0299-34.0641L79.0299-37.6792C76.7753-37.0961 74.3652-36.6296 72.1883-36.2798L72.1883-31.4207C72.1883-30.0213 71.061-28.894 69.6616-28.894C68.2622-28.894 67.096-30.0213 67.096-31.4207L67.096-35.619C64.5693-35.3857 61.6928-35.1914 59.2827-35.1525L59.2827-30.4489C59.2827-29.0495 58.1554-27.8834 56.756-27.8834C55.3566-27.8834 54.1904-29.0495 54.1904-30.4489L54.1904-35.1914C51.6248-35.2302 48.9426-35.4246 46.4159-35.6967L46.4159-31.4207C46.4159-30.0213 45.2498-28.894 43.8504-28.894C42.4509-28.894 41.3236-30.0213 41.3236-31.4207L41.3236-36.4353C38.9136-36.824 36.659-37.3293 34.4821-37.9513L34.4821-34.0641C34.4821-32.6647 33.3548-31.5374 31.9554-31.5374C30.556-31.5374 29.3898-32.6647 29.3898-34.0641L29.3898-39.7006C24.4919-41.6442 20.6047-44.2098 17.9225-47.3196L17.9225-42.8881C17.9225-26.6394 32.7328-19.7979 57.2225-19.7979ZM88.3593-2.1887C88.3593-3.97683 86.8432-5.76496 84.472-4.87089C77.164-2.1887 69.3506-0.828164 60.7598-0.828164C52.2079-0.828164 44.3557-2.1887 37.0477-4.87089L35.0652 0.648988C42.9952 3.56442 51.5471 5.04157 60.7598 5.04157C70.0115 5.04157 78.5245 3.52555 86.4545 0.648988C87.815 0.182519 88.3593-1.02253 88.3593-2.1887ZM38.4471 8.07362L44.3168-8.71926C45.2109-11.246 42.7231-13.1118 40.6239-12.3733L27.0963-7.63083C25.2693-7.00888 24.6085-5.18187 25.6192-3.51036L33.3159 8.61783C34.521 10.5226 37.5919 10.4448 38.4471 8.07362Z"/>
  </g>
  <g id="Ultralight-S" transform="matrix(1 0 0 1 508.183 696)">
   <path class="SFSymbolsPreviewWireframe" d="M51.5275-43.5364C72.507-43.5364 86.5426-49.4461 86.5426-58.1629C86.5426-66.8305 72.507-72.7894 51.5275-72.7894C30.4988-72.7894 16.5125-66.8305 16.5125-58.1629C16.5125-49.4461 30.4988-43.5364 51.5275-43.5364ZM51.5275-23.5911C73.1965-23.5911 87.5275-29.7963 87.5275-44.0781L87.5275-51.5637C85.4591-48.6581 81.9133-46.1957 77.1855-44.3736L77.1855-37.4789C77.1855-36.8879 76.693-36.3955 76.1513-36.3955C75.5111-36.3955 75.0186-36.8879 75.0186-37.4789L75.0186-43.5364C71.6698-42.4529 67.73-41.7142 65.3661-41.3695L65.3661-34.524C65.3661-33.8838 64.8736-33.4406 64.3319-33.4406C63.6917-33.4406 63.1992-33.8838 63.1992-34.524L63.1992-41.074C59.6534-40.68 54.9748-40.4338 52.5617-40.4338L52.5617-33.5391C52.5617-32.8989 52.0692-32.4556 51.5275-32.4556C50.8873-32.4556 50.3948-32.8989 50.3948-33.5391L50.3948-40.4338C47.1937-40.4338 43.3524-40.68 39.7573-41.074L39.7573-34.524C39.7573-33.8838 39.2649-33.4406 38.7231-33.4406C38.0829-33.4406 37.5904-33.8838 37.5904-34.524L37.5904-41.3695C34.2909-41.9604 30.9913-42.6006 27.9379-43.5856L27.9379-37.4789C27.9379-36.8879 27.4454-36.3955 26.9037-36.3955C26.2635-36.3955 25.771-36.8879 25.771-37.4789L25.771-44.4228C21.0925-46.245 17.5959-48.6581 15.5275-51.5637L15.5275-44.0781C15.5275-29.7963 29.9078-23.5911 51.5275-23.5911ZM79.8941-7.19163C79.8941-7.93034 79.2539-8.57056 78.3182-8.27507C70.7341-5.41871 63.5932-4.13827 55.6151-4.13827C47.6862-4.13827 40.4961-5.41871 32.9119-8.27507L32.124-6.15743C40.0528-3.25182 47.44-1.92213 55.6151-1.92213C63.7902-1.92213 71.1773-3.25182 79.1062-6.15743C79.6971-6.40366 79.8941-6.7484 79.8941-7.19163ZM33.6506 1.91918L37.8367-12.6089C38.1814-13.9878 36.901-14.825 35.6205-14.3818L23.9489-10.2942C22.8162-9.94949 22.2744-8.57056 23.0624-7.43786L30.745 2.21467C31.6807 3.29811 33.2567 3.24887 33.6506 1.91918Z"/>
  </g>
 </g>
</svg>
