<?xml version="1.0" encoding="UTF-8" standalone="no"?>
<!DOCTYPE svg PUBLIC "-//W3C//DTD SVG 1.1//EN" "http://www.w3.org/Graphics/SVG/1.1/DTD/svg11.dtd">
<svg width="100%" height="100%" viewBox="0 0 36 36" version="1.1" xmlns="http://www.w3.org/2000/svg" xmlns:xlink="http://www.w3.org/1999/xlink" xml:space="preserve" xmlns:serif="http://www.serif.com/" style="fill-rule:evenodd;clip-rule:evenodd;stroke-linecap:round;stroke-linejoin:round;stroke-miterlimit:1.5;">
    <g transform="matrix(5.44654,0,0,5.44654,-80.0377,-80.0377)">
        <circle cx="18" cy="18" r="3.002" style="fill:none;stroke:white;stroke-width:0.4px;"/>
    </g>
    <g transform="matrix(0.240825,0,0,0.240825,9.54819,26.49)">
        <path d="M35.083,-74.414C33.569,-74.414 31.982,-73.804 30.957,-72.73L11.499,-52.978C10.4,-51.88 9.766,-50.391 9.766,-48.95C9.766,-45.703 12.06,-43.53 15.137,-43.53C16.846,-43.53 18.066,-44.238 19.067,-45.288L25.562,-52.002L35.083,-63.745L44.629,-52.002L51.123,-45.288C52.124,-44.238 53.345,-43.53 55.054,-43.53C58.13,-43.53 60.425,-45.703 60.425,-48.95C60.425,-50.391 59.815,-51.88 58.691,-52.978L39.209,-72.73C38.159,-73.804 36.597,-74.414 35.083,-74.414ZM35.083,-2.075C37.94,-2.075 40.186,-4.37 40.259,-7.251L40.698,-21.411L40.698,-49.097L40.259,-63.257C40.186,-66.138 37.94,-68.433 35.083,-68.433C32.227,-68.433 29.981,-66.138 29.907,-63.257L29.468,-49.097L29.468,-21.411L29.907,-7.251C29.981,-4.37 32.227,-2.075 35.083,-2.075ZM35.083,3.906C36.597,3.906 38.159,3.296 39.209,2.222L58.691,-17.529C59.815,-18.628 60.425,-20.117 60.425,-21.533C60.425,-24.78 58.13,-26.978 55.054,-26.978C53.345,-26.978 52.124,-26.245 51.123,-25.22L44.629,-18.506L35.083,-6.763L25.562,-18.506L19.067,-25.22C18.066,-26.245 16.846,-26.978 15.137,-26.978C12.06,-26.978 9.766,-24.78 9.766,-21.533C9.766,-20.117 10.4,-18.628 11.499,-17.529L30.957,2.222C31.982,3.296 33.569,3.906 35.083,3.906Z" style="fill:white;fill-rule:nonzero;"/>
    </g>
</svg>
