<?xml version="1.0" encoding="UTF-8" standalone="no"?>
<!DOCTYPE svg PUBLIC "-//W3C//DTD SVG 1.1//EN" "http://www.w3.org/Graphics/SVG/1.1/DTD/svg11.dtd">
<svg width="100%" height="100%" viewBox="0 0 36 36" version="1.1" xmlns="http://www.w3.org/2000/svg" xmlns:xlink="http://www.w3.org/1999/xlink" xml:space="preserve" xmlns:serif="http://www.serif.com/" style="fill-rule:evenodd;clip-rule:evenodd;stroke-linecap:round;stroke-linejoin:round;stroke-miterlimit:1.5;">
    <g transform="matrix(5.44654,0,0,5.44654,-80.0377,-80.0377)">
        <circle cx="18" cy="18" r="3.002" style="fill:none;stroke:white;stroke-width:0.4px;"/>
    </g>
    <g transform="matrix(0.212452,0,0,0.212452,5.86284,25.4846)">
        <path d="M84.595,-8.203L85.059,-21.68L85.059,-68.262C85.059,-71.411 82.715,-73.731 79.565,-73.731C76.416,-73.731 74.072,-71.411 74.072,-68.262L74.072,-21.68L74.561,-8.203C74.658,-4.565 77.124,-2.734 79.59,-2.734C82.08,-2.734 84.546,-4.565 84.595,-8.203ZM63.867,-26.099C62.866,-27.148 61.572,-27.661 60.083,-27.661C56.909,-27.661 54.639,-25.415 54.639,-22.217C54.639,-20.85 55.298,-19.287 56.299,-18.262L75.488,1.514C77.759,3.857 81.348,3.882 83.618,1.514L102.832,-18.262C103.833,-19.287 104.492,-20.85 104.492,-22.217C104.492,-25.415 102.222,-27.661 99.048,-27.661C97.559,-27.661 96.289,-27.148 95.264,-26.099L86.108,-16.528L79.565,-8.911L72.9,-16.65L63.867,-26.099ZM39.746,-62.256C39.673,-65.894 37.207,-67.725 34.717,-67.725C32.251,-67.725 29.785,-65.894 29.688,-62.256L29.199,-48.779L29.199,-2.197C29.199,0.952 31.543,3.271 34.692,3.271C37.842,3.271 40.186,0.952 40.186,-2.197L40.186,-48.779L39.746,-62.256ZM18.994,-44.36L28.027,-53.809L34.692,-61.548L41.235,-53.931L50.391,-44.36C51.416,-43.311 52.686,-42.798 54.175,-42.798C57.349,-42.798 59.619,-45.044 59.619,-48.242C59.619,-49.634 58.96,-51.172 57.959,-52.197L38.77,-71.973C36.475,-74.341 32.886,-74.316 30.64,-71.973L11.426,-52.197C10.425,-51.172 9.766,-49.634 9.766,-48.242C9.766,-45.044 12.036,-42.798 15.21,-42.798C16.699,-42.798 17.993,-43.311 18.994,-44.36Z" style="fill:white;fill-rule:nonzero;"/>
    </g>
</svg>
