<?xml version="1.0" encoding="UTF-8" standalone="no"?>
<!DOCTYPE svg PUBLIC "-//W3C//DTD SVG 1.1//EN" "http://www.w3.org/Graphics/SVG/1.1/DTD/svg11.dtd">
<svg width="100%" height="100%" viewBox="0 0 36 36" version="1.1" xmlns="http://www.w3.org/2000/svg" xmlns:xlink="http://www.w3.org/1999/xlink" xml:space="preserve" xmlns:serif="http://www.serif.com/" style="fill-rule:evenodd;clip-rule:evenodd;stroke-linecap:round;stroke-linejoin:round;stroke-miterlimit:1.5;">
    <g transform="matrix(5.44654,0,0,5.44654,-80.0377,-80.0377)">
        <circle cx="18" cy="18" r="3.002" style="fill:none;stroke:white;stroke-width:0.4px;"/>
    </g>
    <g transform="matrix(0.262271,0,0,0.262271,5.17138,27.2493)">
        <path d="M88.062,-35.278C88.062,-36.792 87.476,-38.379 86.401,-39.404L66.65,-58.862C65.527,-59.961 64.038,-60.596 62.622,-60.596C59.375,-60.596 57.178,-58.301 57.178,-55.225C57.178,-53.516 57.91,-52.295 58.96,-51.294L65.649,-44.8L77.417,-35.278L65.649,-25.757L58.96,-19.238C57.91,-18.237 57.178,-17.017 57.178,-15.308C57.178,-12.231 59.375,-9.937 62.622,-9.937C64.038,-9.937 65.527,-10.571 66.65,-11.67L86.401,-31.152C87.476,-32.202 88.062,-33.765 88.062,-35.278ZM15.723,-35.278C15.723,-32.422 18.042,-30.176 20.898,-30.103L35.083,-29.663L62.769,-29.663L76.929,-30.103C79.785,-30.176 82.105,-32.422 82.105,-35.278C82.105,-38.135 79.785,-40.381 76.929,-40.454L62.769,-40.894L35.083,-40.894L20.898,-40.454C18.042,-40.381 15.723,-38.135 15.723,-35.278ZM9.766,-35.278C9.766,-33.765 10.376,-32.202 11.45,-31.152L31.201,-11.67C32.3,-10.571 33.789,-9.937 35.205,-9.937C38.452,-9.937 40.649,-12.231 40.649,-15.308C40.649,-17.017 39.917,-18.237 38.892,-19.238L32.178,-25.757L20.435,-35.278L32.178,-44.8L38.892,-51.294C39.917,-52.295 40.649,-53.516 40.649,-55.225C40.649,-58.301 38.452,-60.596 35.205,-60.596C33.789,-60.596 32.3,-59.961 31.201,-58.862L11.45,-39.404C10.376,-38.379 9.766,-36.792 9.766,-35.278Z" style="fill:white;fill-rule:nonzero;"/>
    </g>
</svg>
