<?xml version="1.0" encoding="UTF-8" standalone="no"?>
<!DOCTYPE svg PUBLIC "-//W3C//DTD SVG 1.1//EN" "http://www.w3.org/Graphics/SVG/1.1/DTD/svg11.dtd">
<svg width="100%" height="100%" viewBox="0 0 36 36" version="1.1" xmlns="http://www.w3.org/2000/svg" xmlns:xlink="http://www.w3.org/1999/xlink" xml:space="preserve" xmlns:serif="http://www.serif.com/" style="fill-rule:evenodd;clip-rule:evenodd;stroke-linecap:round;stroke-linejoin:round;stroke-miterlimit:1.5;">
    <g transform="matrix(1.34473,0,0,1.34473,-6.2052,-6.2052)">
        <circle cx="18" cy="18" r="3.002" style="fill:none;stroke:white;stroke-width:1.49px;"/>
    </g>
    <g transform="matrix(5.44654,0,0,5.44654,-80.0377,-80.0377)">
        <circle cx="18" cy="18" r="3.002" style="fill:none;stroke:white;stroke-width:0.4px;"/>
    </g>
    <g transform="matrix(0.594837,0,0,0.754441,6.32507,-5.74667)">
        <path d="M21.254,17.45L21.254,21.246C21.254,21.955 20.525,22.529 19.627,22.529C18.729,22.529 18,21.955 18,21.246L18,17.45C18,16.742 18.729,16.167 19.627,16.167C20.525,16.167 21.254,16.742 21.254,17.45Z" style="fill:white;"/>
    </g>
    <g transform="matrix(0.420613,0.420613,-0.533471,0.533471,26.4653,-7.07614)">
        <path d="M21.254,17.45L21.254,21.246C21.254,21.955 20.525,22.529 19.627,22.529C18.729,22.529 18,21.955 18,21.246L18,17.45C18,16.742 18.729,16.167 19.627,16.167C20.525,16.167 21.254,16.742 21.254,17.45Z" style="fill:white;"/>
    </g>
    <g transform="matrix(5.55112e-17,0.594837,-0.754441,1.11022e-16,41.6467,6.22507)">
        <path d="M21.254,17.45L21.254,21.246C21.254,21.955 20.525,22.529 19.627,22.529C18.729,22.529 18,21.955 18,21.246L18,17.45C18,16.742 18.729,16.167 19.627,16.167C20.525,16.167 21.254,16.742 21.254,17.45Z" style="fill:white;"/>
    </g>
    <g transform="matrix(-0.420613,0.420613,-0.533471,-0.533471,42.9761,26.3653)">
        <path d="M21.254,17.45L21.254,21.246C21.254,21.955 20.525,22.529 19.627,22.529C18.729,22.529 18,21.955 18,21.246L18,17.45C18,16.742 18.729,16.167 19.627,16.167C20.525,16.167 21.254,16.742 21.254,17.45Z" style="fill:white;"/>
    </g>
    <g transform="matrix(-0.594837,1.66533e-16,-2.77556e-16,-0.754441,29.6749,41.5467)">
        <path d="M21.254,17.45L21.254,21.246C21.254,21.955 20.525,22.529 19.627,22.529C18.729,22.529 18,21.955 18,21.246L18,17.45C18,16.742 18.729,16.167 19.627,16.167C20.525,16.167 21.254,16.742 21.254,17.45Z" style="fill:white;"/>
    </g>
    <g transform="matrix(-0.420613,-0.420613,0.533471,-0.533471,9.53471,42.8761)">
        <path d="M21.254,17.45L21.254,21.246C21.254,21.955 20.525,22.529 19.627,22.529C18.729,22.529 18,21.955 18,21.246L18,17.45C18,16.742 18.729,16.167 19.627,16.167C20.525,16.167 21.254,16.742 21.254,17.45Z" style="fill:white;"/>
    </g>
    <g transform="matrix(-2.77556e-16,-0.594837,0.754441,-4.44089e-16,-5.64667,29.5749)">
        <path d="M21.254,17.45L21.254,21.246C21.254,21.955 20.525,22.529 19.627,22.529C18.729,22.529 18,21.955 18,21.246L18,17.45C18,16.742 18.729,16.167 19.627,16.167C20.525,16.167 21.254,16.742 21.254,17.45Z" style="fill:white;"/>
    </g>
    <g transform="matrix(0.420613,-0.420613,0.533471,0.533471,-6.97614,9.43471)">
        <path d="M21.254,17.45L21.254,21.246C21.254,21.955 20.525,22.529 19.627,22.529C18.729,22.529 18,21.955 18,21.246L18,17.45C18,16.742 18.729,16.167 19.627,16.167C20.525,16.167 21.254,16.742 21.254,17.45Z" style="fill:white;"/>
    </g>
</svg>
