<?xml version="1.0" encoding="UTF-8" standalone="no"?>
<!DOCTYPE svg PUBLIC "-//W3C//DTD SVG 1.1//EN" "http://www.w3.org/Graphics/SVG/1.1/DTD/svg11.dtd">
<svg width="100%" height="100%" viewBox="0 0 36 36" version="1.1" xmlns="http://www.w3.org/2000/svg" xmlns:xlink="http://www.w3.org/1999/xlink" xml:space="preserve" xmlns:serif="http://www.serif.com/" style="fill-rule:evenodd;clip-rule:evenodd;stroke-linecap:round;stroke-linejoin:round;stroke-miterlimit:1.5;">
    <g transform="matrix(5.44654,0,0,5.44654,-80.0377,-80.0377)">
        <circle cx="18" cy="18" r="3.002" style="fill:none;stroke:white;stroke-width:0.4px;"/>
    </g>
    <g transform="matrix(0.259605,0,0,0.259605,3.61903,27.1394)">
        <path d="M20.508,-19.19L31.201,-19.19C31.494,-19.19 31.787,-19.092 31.982,-18.897L48.975,-3.662C51.025,-1.855 52.588,-1.025 54.59,-1.025C57.227,-1.025 59.326,-2.979 59.326,-5.713L59.326,-64.453C59.326,-67.139 57.227,-69.385 54.492,-69.385C52.49,-69.385 51.221,-68.506 48.975,-66.455L31.982,-51.514C31.787,-51.318 31.494,-51.221 31.201,-51.221L20.508,-51.221C14.844,-51.221 12.06,-48.34 12.06,-42.285L12.06,-28.076C12.06,-22.07 14.893,-19.19 20.508,-19.19ZM20.801,-25.537C19.531,-25.537 18.848,-26.172 18.848,-27.49L18.848,-42.92C18.848,-44.19 19.531,-44.873 20.801,-44.873L33.106,-44.873C34.033,-44.873 34.766,-45.02 35.645,-45.85L51.514,-60.205C51.66,-60.352 51.856,-60.449 52.051,-60.449C52.295,-60.449 52.49,-60.254 52.49,-59.961L52.49,-10.498C52.49,-10.156 52.295,-9.961 52.051,-9.961C51.856,-9.961 51.66,-10.059 51.514,-10.254L35.645,-24.561C34.766,-25.342 34.033,-25.537 33.106,-25.537L20.801,-25.537ZM71.582,-18.799C73.047,-17.822 75.098,-18.115 76.269,-19.824C79.199,-23.731 80.908,-29.492 80.908,-35.254C80.908,-41.016 79.199,-46.728 76.269,-50.684C75.098,-52.393 73.047,-52.686 71.582,-51.66C69.824,-50.44 69.531,-48.291 70.898,-46.484C72.949,-43.701 74.121,-39.453 74.121,-35.254C74.121,-31.055 72.9,-26.856 70.898,-24.023C69.58,-22.168 69.824,-20.068 71.582,-18.799ZM86.231,-8.887C87.842,-7.813 89.844,-8.154 91.016,-9.863C95.898,-16.65 98.731,-25.879 98.731,-35.254C98.731,-44.629 95.947,-53.955 91.016,-60.645C89.844,-62.353 87.842,-62.695 86.231,-61.621C84.619,-60.547 84.326,-58.496 85.596,-56.69C89.648,-50.928 91.943,-43.164 91.943,-35.254C91.943,-27.344 89.551,-19.629 85.596,-13.818C84.375,-12.012 84.619,-9.961 86.231,-8.887Z" style="fill:white;fill-rule:nonzero;"/>
    </g>
</svg>
