<svg viewBox="0 0 36 36" xmlns="http://www.w3.org/2000/svg" xml:space="preserve" style="fill-rule:evenodd;clip-rule:evenodd;stroke-linecap:round;stroke-linejoin:round;stroke-miterlimit:1.5"><circle cx="18" cy="18" r="3.002" style="fill:none;stroke:#fff;stroke-width:.4px" transform="translate(-80.038 -80.038)scale(5.44654)"/><path d="M254.5 55c-.87.08-8.6 1.45-9.53 1.64l-107 21.59-.04.01c-2.79.59-4.98 1.58-6.67 3-2.04 1.71-3.17 4.13-3.6 6.95-.09.6-.24 1.82-.24 3.62v133.92c0 3.13-.25 6.17-2.37 8.76s-4.74 3.37-7.81 3.99l-6.99 1.41c-8.84 1.78-14.59 2.99-19.8 5.01-4.98 1.93-8.71 4.39-11.68 7.51-5.89 6.17-8.28 14.54-7.46 22.38.7 6.69 3.71 13.09 8.88 17.82 3.49 3.2 7.85 5.63 12.99 6.66 5.33 1.07 11.01.7 19.31-.98 4.42-.89 8.56-2.28 12.5-4.61 3.9-2.3 7.24-5.37 9.85-9.11 2.62-3.75 4.31-7.92 5.24-12.35.96-4.57 1.19-8.7 1.19-13.26V142.81c0-6.22 1.76-7.86 6.78-9.08 0 0 88.94-17.94 93.09-18.75 5.79-1.11 8.52.54 8.52 6.61v79.29c0 3.14-.03 6.32-2.17 8.92-2.12 2.59-4.74 3.37-7.81 3.99l-6.99 1.41c-8.84 1.78-14.59 2.99-19.8 5.01-4.98 1.93-8.71 4.39-11.68 7.51-5.89 6.17-8.49 14.54-7.67 22.38.7 6.69 3.92 13.09 9.09 17.82 3.49 3.2 7.85 5.56 12.99 6.6 5.33 1.07 11.01.69 19.31-.98 4.42-.89 8.56-2.22 12.5-4.55 3.9-2.3 7.24-5.37 9.85-9.11 2.62-3.75 4.31-7.92 5.24-12.35.96-4.57 1-8.7 1-13.26V64.46c.02-6.16-3.23-9.96-9.02-9.46" style="fill:#fff" transform="translate(3.763 3.662)scale(.0809)"/></svg>