<?xml version="1.0" encoding="UTF-8" standalone="no"?>
<!DOCTYPE svg PUBLIC "-//W3C//DTD SVG 1.1//EN" "http://www.w3.org/Graphics/SVG/1.1/DTD/svg11.dtd">
<svg width="100%" height="100%" viewBox="0 0 36 36" version="1.1" xmlns="http://www.w3.org/2000/svg" xmlns:xlink="http://www.w3.org/1999/xlink" xml:space="preserve" xmlns:serif="http://www.serif.com/" style="fill-rule:evenodd;clip-rule:evenodd;stroke-linecap:round;stroke-linejoin:round;stroke-miterlimit:1.5;">
    <g transform="matrix(5.44654,0,0,5.44654,-80.0377,-80.0377)">
        <circle cx="18" cy="18" r="3.002" style="fill:none;stroke:#fff;stroke-width:0.4px;"/>
    </g>
    <g transform="matrix(0.0644305,0,0,0.0644305,8.6382,9.28606)">
        <path d="M6.391,241.58C31.147,272.048 80.268,279.91 110.59,255.3C135.981,234.89 139.057,204.568 119.379,180.252C101.606,158.279 72.406,153.396 52.826,169.754C33.393,185.281 41.108,203.933 30.317,212.332C20.6,220.095 11.03,215.017 3.998,220.73C-2.203,225.857 -0.445,233.474 6.391,241.58ZM128.412,162.673C138.764,173.025 145.893,185.769 148.237,197.634C157.172,195.828 164.692,191.775 172.309,184.744C173.627,183.572 174.897,182.4 176.166,181.13C171.576,147.879 143.256,119.363 110.053,114.968C108.783,116.189 107.612,117.41 106.488,118.679C99.262,126.492 95.16,134.255 93.5,143.045C105.17,145.242 118.158,152.322 128.412,162.673ZM249.75,5.642C243.256,10.33 172.797,58.572 128.754,97.39C159.662,107.546 183.588,131.375 193.793,162.429C232.66,118.386 280.854,48.025 285.492,41.384C302.143,17.361 273.139,-11.106 249.75,5.642Z" style="fill:#fff;fill-opacity:0.85;fill-rule:nonzero;"/>
    </g>
</svg>
