<?xml version="1.0" encoding="UTF-8" standalone="no"?>
<!DOCTYPE svg PUBLIC "-//W3C//DTD SVG 1.1//EN" "http://www.w3.org/Graphics/SVG/1.1/DTD/svg11.dtd">
<svg width="100%" height="100%" viewBox="0 0 36 36" version="1.1" xmlns="http://www.w3.org/2000/svg" xmlns:xlink="http://www.w3.org/1999/xlink" xml:space="preserve" xmlns:serif="http://www.serif.com/" style="fill-rule:evenodd;clip-rule:evenodd;stroke-linecap:round;stroke-linejoin:round;stroke-miterlimit:1.5;">
    <g transform="matrix(5.44654,0,0,5.44654,-80.0377,-80.0377)">
        <circle cx="18" cy="18" r="3.002" style="fill:none;stroke:white;stroke-width:0.4px;"/>
    </g>
    <g transform="matrix(0.221793,0,0,0.221793,4.56571,24.0682)">
        <path d="M12.109,-7.324L24.854,-7.324C27.759,-7.324 30.151,-9.717 30.151,-12.573C30.151,-15.405 27.71,-17.822 24.854,-17.822L12.109,-17.822C9.277,-17.822 6.836,-15.43 6.836,-12.573C6.836,-9.741 9.277,-7.324 12.109,-7.324ZM38.11,-33.545C40.137,-35.547 40.112,-38.94 38.11,-40.967L29.15,-50C27.124,-52.026 23.706,-52.051 21.68,-50.024C19.678,-48.023 19.702,-44.629 21.704,-42.603L30.689,-33.569C32.715,-31.519 36.108,-31.519 38.11,-33.545ZM60.596,-41.699C63.452,-41.699 65.845,-44.092 65.845,-46.924L65.845,-59.668C65.845,-62.573 63.428,-64.99 60.596,-64.99C57.764,-64.99 55.322,-62.549 55.322,-59.668L55.322,-46.924C55.322,-44.092 57.739,-41.699 60.596,-41.699ZM83.032,-33.545C85.034,-31.519 88.403,-31.519 90.43,-33.569L99.414,-42.603C101.44,-44.629 101.465,-48.023 99.439,-50.024C97.412,-52.051 94.019,-52.026 91.992,-50L83.032,-40.967C81.006,-38.94 81.006,-35.547 83.032,-33.545ZM96.265,-7.324L109.033,-7.324C111.865,-7.324 114.307,-9.741 114.307,-12.573C114.307,-15.43 111.865,-17.822 109.033,-17.822L96.265,-17.822C93.433,-17.822 90.991,-15.405 90.991,-12.573C90.991,-9.717 93.384,-7.324 96.265,-7.324ZM45.63,-6.396L75.513,-6.396C78.857,-6.396 81.69,-9.18 81.69,-12.549C81.69,-15.894 78.882,-18.677 75.513,-18.677L45.63,-18.677C42.236,-18.677 39.453,-15.894 39.453,-12.549C39.453,-9.18 42.261,-6.396 45.63,-6.396Z" style="fill:white;fill-rule:nonzero;"/>
    </g>
</svg>
