<svg viewBox="0 0 36 36" xmlns="http://www.w3.org/2000/svg" xml:space="preserve" style="fill-rule:evenodd;clip-rule:evenodd;stroke-linecap:round;stroke-linejoin:round;stroke-miterlimit:1.5"><circle cx="18" cy="18" r="3.002" style="fill:none;stroke:#fff;stroke-width:.4px" transform="translate(-80.038 -80.038)scale(5.44654)"/><path d="M.664 140.876s-2.302 7.989 3.791 8.652c6.287-.134 125.469.133 125.469.133s5.93-.849 5.128-6.779c-.803-5.931-14.087-47.163-14.087-47.163s-.402-3.878-7.449-3.878-7.674.087-7.674.087L78.778 4.342S77.355.407 67.682.407 56.421 4.342 56.421 4.342L29.112 91.928h-9.165s-4.608-.361-6.398 5.48zm66.883-55.167c12.004 0 26.475-1.489 33.568-9.079l4.727 15.298 2.018 7.273c-5.268 12.81-27.497 14.877-41.154 14.674-6.242-.093-35.136 0-39.627-15.446l.001-.002 6.815-21.797c5.869 6.654 21.647 9.079 33.652 9.079M50.6 23.013l-8.095 25.962s10.673 5.42 23.519 5.531c10.516.09 20.536-.823 26.442-5.867l-7.992-25.863-.009.002c-10.868 3.137-24.817 3.041-33.865.237z" style="fill:#fff" transform="translate(10.337 9.505)scale(.11322)"/></svg>